<svg width="467" height="268" viewBox="0 0 467 268" fill="none" xmlns="http://www.w3.org/2000/svg">
<path d="M127.304 215.963H103.207V223.996H127.304V230.729H103.207C102.296 230.729 101.43 230.558 100.609 230.216C99.7891 229.852 99.0713 229.373 98.4561 228.781C97.8636 228.165 97.3851 227.448 97.0205 226.627C96.6787 225.807 96.5078 224.93 96.5078 223.996V201.061C96.5078 200.127 96.6787 199.249 97.0205 198.429C97.3851 197.609 97.8636 196.902 98.4561 196.31C99.0713 195.695 99.7891 195.216 100.609 194.874C101.43 194.51 102.296 194.328 103.207 194.328H120.57C121.505 194.328 122.382 194.51 123.202 194.874C124.022 195.216 124.729 195.695 125.321 196.31C125.937 196.902 126.415 197.609 126.757 198.429C127.121 199.249 127.304 200.127 127.304 201.061V215.963ZM103.207 201.061V209.23H120.57V201.061H103.207ZM138.549 201.061C138.549 200.127 138.72 199.249 139.062 198.429C139.426 197.609 139.905 196.902 140.497 196.31C141.112 195.695 141.83 195.216 142.65 194.874C143.471 194.51 144.337 194.328 145.248 194.328H164.013V180.314H170.746V230.729H164.013V224.577C163.944 225.42 163.716 226.217 163.329 226.969C162.942 227.721 162.44 228.382 161.825 228.952C161.233 229.498 160.549 229.931 159.774 230.25C159 230.569 158.179 230.729 157.313 230.729H145.248C144.337 230.729 143.471 230.558 142.65 230.216C141.83 229.852 141.112 229.373 140.497 228.781C139.905 228.165 139.426 227.448 139.062 226.627C138.72 225.807 138.549 224.93 138.549 223.996V201.061ZM145.248 223.996H164.013V201.061H145.248V223.996ZM181.957 194.328H188.656V223.996H207.421V194.328H214.154V230.729H207.421V224.577C207.353 225.42 207.125 226.217 206.737 226.969C206.35 227.721 205.849 228.382 205.233 228.952C204.641 229.498 203.957 229.931 203.183 230.25C202.408 230.569 201.588 230.729 200.722 230.729H188.656C187.745 230.729 186.879 230.558 186.059 230.216C185.238 229.852 184.521 229.373 183.905 228.781C183.313 228.165 182.834 227.448 182.47 226.627C182.128 225.807 181.957 224.93 181.957 223.996V194.328ZM251.342 230.729L233.056 194.806V230.729H226.049V181.715H233.705L252.367 218.629L271.063 181.715H278.686V230.729H271.713V194.806L253.427 230.729H251.342ZM291.332 181.715H327.05V188.722H298.339V202.736H322.846V209.743H298.339V230.729H291.332V181.715ZM355.077 181.715L373.979 230.729H366.972L362.631 219.45H340.517L336.176 230.729H329.169L348.07 181.715H355.077ZM343.183 212.443H359.931L351.591 190.841L343.183 212.443Z" fill="black"/>
<g filter="url(#filter0_d_3205_41)">
<path d="M156.919 48.548C164.053 42.5562 178.321 38.6229 193.32 38.6229C208.318 38.6229 222.672 42.5194 229.548 48.548C230.376 49.0789 231.4 49.3366 232.432 49.2739C233.463 49.2112 234.434 48.8322 235.166 48.2065C235.897 47.5808 236.34 46.7504 236.414 45.8678C236.487 44.9852 236.186 44.1095 235.565 43.4017C225.251 34.4324 206.943 31.2711 193.277 31.2711C179.61 31.2711 161.303 34.4691 150.902 43.4017C150.282 44.1095 149.98 44.9852 150.054 45.8678C150.127 46.7504 150.57 47.5808 151.302 48.2065C152.033 48.8322 153.004 49.2112 154.036 49.2739C155.068 49.3366 156.091 49.0789 156.919 48.548Z" fill="black"/>
<path fill-rule="evenodd" clip-rule="evenodd" d="M193.32 45.9748C217.233 45.9748 235.47 55.6187 247.619 74.6188L271.172 61.1818L330.006 94.7462L310.306 106.432V126.293L298.204 133.471V152.342H304.746V167.566H297.477V158.836H291.662V167.566H284.394V152.342H290.936V137.783L271.199 149.491L235.141 128.101C234.101 128.66 233.002 129.137 231.855 129.527C229.345 130.379 226.661 130.792 223.961 130.742C221.762 130.731 219.571 130.509 217.429 130.08C205.095 127.581 191.901 118.207 188.463 109.642C188.283 109.184 188.21 108.699 188.248 108.216C188.286 107.733 188.435 107.262 188.687 106.828C188.938 106.395 189.287 106.008 189.713 105.69C190.139 105.371 190.635 105.128 191.171 104.974C191.707 104.819 192.273 104.757 192.838 104.789C193.402 104.822 193.954 104.95 194.461 105.165C194.967 105.38 195.42 105.678 195.792 106.043C196.164 106.407 196.448 106.831 196.629 107.29C198.864 112.987 209.092 120.817 219.406 122.912C221.635 123.597 224.042 123.743 226.362 123.334C228.378 122.979 230.261 122.217 231.857 121.116V109.558C231.116 110.222 230.303 110.84 229.419 111.407C220.691 117.079 210.598 110.837 203.003 106.138L202.903 106.076C195.297 101.371 189.925 98.3937 186.272 100.489C184.46 101.634 183.05 103.182 182.194 104.964C181.338 106.746 181.068 108.694 181.415 110.598C182.275 117.95 189.452 127.985 207.201 134.491C208.115 134.824 208.866 135.418 209.326 136.171C209.786 136.925 209.927 137.791 209.724 138.623C209.521 139.455 208.988 140.201 208.215 140.735C207.441 141.268 206.475 141.556 205.482 141.549C204.964 141.53 204.454 141.43 203.978 141.255C182.748 133.352 174.152 120.707 173.121 111.296C172.625 108.076 173.164 104.801 174.678 101.822C176.192 98.8436 178.625 96.2733 181.716 94.387C190.409 89.43 199.923 95.1784 207.57 99.7994L208.103 100.121C215.839 104.79 220.996 107.731 224.434 105.525C225.425 104.869 226.221 104.137 226.854 103.356L216.222 97.0502C216.204 97.0368 216.183 97.0234 216.16 97.0102C215.466 96.6071 214.668 95.6574 214.355 95.2329L213.39 94.1508L213.381 94.1513L213.39 94.1463C206.457 86.6031 198.101 83.4334 189.151 84.903C184.014 85.8528 179.254 87.9274 175.337 90.9238C171.419 93.9202 168.479 97.7356 166.804 101.996V102.033C163.151 114.164 168.651 127.875 183.005 142.946C183.718 143.699 184.054 144.661 183.942 145.625C183.829 146.589 183.276 147.475 182.404 148.092C181.654 148.649 180.69 148.95 179.696 148.938C179.04 148.951 178.389 148.835 177.793 148.599C177.197 148.364 176.672 148.014 176.258 147.578C160.056 130.668 153.911 114.752 158.208 100.268C160.312 94.6158 164.134 89.5432 169.285 85.5706C174.435 81.598 180.728 78.8683 187.518 77.6614C194.684 76.5276 208.399 76.6574 220.541 90.0665L226.11 86.8898C220.671 77.2682 208.367 68.0305 193.277 68.0305C152.75 68.0305 149.613 104.79 149.613 115.818C149.613 116.793 149.16 117.728 148.354 118.417C147.548 119.106 146.455 119.494 145.316 119.494C144.176 119.494 143.083 119.106 142.277 118.417C141.471 117.728 141.018 116.793 141.018 115.818C141.018 89.1671 154.77 60.6786 193.277 60.6786C202.712 60.9883 211.814 63.7407 219.381 68.5717C225.274 72.3342 230.019 77.2195 233.261 82.81L240.453 78.7066C229.739 61.6444 214.216 53.3267 193.234 53.3267C171.445 53.3267 155.63 62.3328 145.144 80.6757C144.892 81.1123 144.542 81.5018 144.114 81.8218C143.685 82.1418 143.187 82.3858 142.647 82.5397C142.107 82.6935 141.537 82.7542 140.97 82.7182C140.402 82.6822 139.849 82.5502 139.342 82.3299C138.33 81.8892 137.563 81.1237 137.208 80.2007C136.854 79.2777 136.941 78.2723 137.451 77.4041C149.398 56.5615 168.265 45.9748 193.32 45.9748ZM271.199 141.696L239.335 122.794C239.284 122.594 239.214 122.398 239.125 122.209V110.636L271.172 129.646L290.936 117.923V129.988L271.199 141.696ZM237.088 101.632L271.172 121.851L288.008 111.864L269.157 100.639L273.188 95.2351L294.574 107.969L316.686 94.8524L271.172 68.8868L236.079 88.9071C236.08 88.9083 236.08 88.9095 236.08 88.9108L228.62 93.1629C228.62 93.163 228.62 93.1628 228.62 93.1629L225.658 94.8522L228.851 96.7463L228.852 96.7524L237.086 101.635L237.088 101.632ZM303.037 122.81L298.204 125.676V113.61L303.037 110.744V122.81Z" fill="black"/>
<mask id="mask0_3205_41" style="mask-type:luminance" maskUnits="userSpaceOnUse" x="136" y="31" width="195" height="137">
<path d="M156.919 48.548C164.053 42.5562 178.321 38.6229 193.32 38.6229C208.318 38.6229 222.672 42.5194 229.548 48.548C230.376 49.0789 231.4 49.3366 232.432 49.2739C233.463 49.2112 234.434 48.8322 235.166 48.2065C235.897 47.5808 236.34 46.7504 236.414 45.8678C236.487 44.9852 236.186 44.1095 235.565 43.4017C225.251 34.4324 206.943 31.2711 193.277 31.2711C179.61 31.2711 161.303 34.4691 150.902 43.4017C150.282 44.1095 149.98 44.9852 150.054 45.8678C150.127 46.7504 150.57 47.5808 151.302 48.2065C152.033 48.8322 153.004 49.2112 154.036 49.2739C155.068 49.3366 156.091 49.0789 156.919 48.548Z" fill="white"/>
<path fill-rule="evenodd" clip-rule="evenodd" d="M193.32 45.9748C217.233 45.9748 235.47 55.6187 247.619 74.6188L271.172 61.1818L330.006 94.7462L310.306 106.432V126.293L298.204 133.471V152.342H304.746V167.566H297.477V158.836H291.662V167.566H284.394V152.342H290.936V137.783L271.199 149.491L235.141 128.101C234.101 128.66 233.002 129.137 231.855 129.527C229.345 130.379 226.661 130.792 223.961 130.742C221.762 130.731 219.571 130.509 217.429 130.08C205.095 127.581 191.901 118.207 188.463 109.642C188.283 109.184 188.21 108.699 188.248 108.216C188.286 107.733 188.435 107.262 188.687 106.828C188.938 106.395 189.287 106.008 189.713 105.69C190.139 105.371 190.635 105.128 191.171 104.974C191.707 104.819 192.273 104.757 192.838 104.789C193.402 104.822 193.954 104.95 194.461 105.165C194.967 105.38 195.42 105.678 195.792 106.043C196.164 106.407 196.448 106.831 196.629 107.29C198.864 112.987 209.092 120.817 219.406 122.912C221.635 123.597 224.042 123.743 226.362 123.334C228.378 122.979 230.261 122.217 231.857 121.116V109.558C231.116 110.222 230.303 110.84 229.419 111.407C220.691 117.079 210.598 110.837 203.003 106.138L202.903 106.076C195.297 101.371 189.925 98.3937 186.272 100.489C184.46 101.634 183.05 103.182 182.194 104.964C181.338 106.746 181.068 108.694 181.415 110.598C182.275 117.95 189.452 127.985 207.201 134.491C208.115 134.824 208.866 135.418 209.326 136.171C209.786 136.925 209.927 137.791 209.724 138.623C209.521 139.455 208.988 140.201 208.215 140.735C207.441 141.268 206.475 141.556 205.482 141.549C204.964 141.53 204.454 141.43 203.978 141.255C182.748 133.352 174.152 120.707 173.121 111.296C172.625 108.076 173.164 104.801 174.678 101.822C176.192 98.8436 178.625 96.2733 181.716 94.387C190.409 89.43 199.923 95.1784 207.57 99.7994L208.103 100.121C215.839 104.79 220.996 107.731 224.434 105.525C225.425 104.869 226.221 104.137 226.854 103.356L216.222 97.0502C216.204 97.0368 216.183 97.0234 216.16 97.0102C215.466 96.6071 214.668 95.6574 214.355 95.2329L213.39 94.1508L213.381 94.1513L213.39 94.1463C206.457 86.6031 198.101 83.4334 189.151 84.903C184.014 85.8528 179.254 87.9274 175.337 90.9238C171.419 93.9202 168.479 97.7356 166.804 101.996V102.033C163.151 114.164 168.651 127.875 183.005 142.946C183.718 143.699 184.054 144.661 183.942 145.625C183.829 146.589 183.276 147.475 182.404 148.092C181.654 148.649 180.69 148.95 179.696 148.938C179.04 148.951 178.389 148.835 177.793 148.599C177.197 148.364 176.672 148.014 176.258 147.578C160.056 130.668 153.911 114.752 158.208 100.268C160.312 94.6158 164.134 89.5432 169.285 85.5706C174.435 81.598 180.728 78.8683 187.518 77.6614C194.684 76.5276 208.399 76.6574 220.541 90.0665L226.11 86.8898C220.671 77.2682 208.367 68.0305 193.277 68.0305C152.75 68.0305 149.613 104.79 149.613 115.818C149.613 116.793 149.16 117.728 148.354 118.417C147.548 119.106 146.455 119.494 145.316 119.494C144.176 119.494 143.083 119.106 142.277 118.417C141.471 117.728 141.018 116.793 141.018 115.818C141.018 89.1671 154.77 60.6786 193.277 60.6786C202.712 60.9883 211.814 63.7407 219.381 68.5717C225.274 72.3342 230.019 77.2195 233.261 82.81L240.453 78.7066C229.739 61.6444 214.216 53.3267 193.234 53.3267C171.445 53.3267 155.63 62.3328 145.144 80.6757C144.892 81.1123 144.542 81.5018 144.114 81.8218C143.685 82.1418 143.187 82.3858 142.647 82.5397C142.107 82.6935 141.537 82.7542 140.97 82.7182C140.402 82.6822 139.849 82.5502 139.342 82.3299C138.33 81.8892 137.563 81.1237 137.208 80.2007C136.854 79.2777 136.941 78.2723 137.451 77.4041C149.398 56.5615 168.265 45.9748 193.32 45.9748ZM271.199 141.696L239.335 122.794C239.284 122.594 239.214 122.398 239.125 122.209V110.636L271.172 129.646L290.936 117.923V129.988L271.199 141.696ZM237.088 101.632L271.172 121.851L288.008 111.864L269.157 100.639L273.188 95.2351L294.574 107.969L316.686 94.8524L271.172 68.8868L236.079 88.9071C236.08 88.9083 236.08 88.9095 236.08 88.9108L228.62 93.1629C228.62 93.163 228.62 93.1628 228.62 93.1629L225.658 94.8522L228.851 96.7463L228.852 96.7524L237.086 101.635L237.088 101.632ZM303.037 122.81L298.204 125.676V113.61L303.037 110.744V122.81Z" fill="white"/>
</mask>
<g mask="url(#mask0_3205_41)">
<path d="M156.919 48.548L157.459 49.3897L157.513 49.355L157.562 49.3137L156.919 48.548ZM229.548 48.548L228.889 49.2999L228.945 49.3493L229.008 49.3897L229.548 48.548ZM235.565 43.4017L236.317 42.7424L236.272 42.6915L236.221 42.6471L235.565 43.4017ZM150.902 43.4017L150.251 42.6431L150.197 42.6892L150.151 42.7424L150.902 43.4017ZM247.619 74.6188L246.776 75.1575L247.288 75.9585L248.114 75.4874L247.619 74.6188ZM271.172 61.1818L271.667 60.3132L271.172 60.0305L270.676 60.3132L271.172 61.1818ZM330.006 94.7462L330.516 95.6063L331.995 94.7294L330.502 93.8776L330.006 94.7462ZM310.306 106.432L309.795 105.572L309.306 105.863V106.432H310.306ZM310.306 126.293L310.816 127.153L311.306 126.863V126.293H310.306ZM298.204 133.471L297.694 132.611L297.204 132.902V133.471H298.204ZM298.204 152.342H297.204V153.342H298.204V152.342ZM304.746 152.342H305.746V151.342H304.746V152.342ZM304.746 167.566V168.566H305.746V167.566H304.746ZM297.477 167.566H296.477V168.566H297.477V167.566ZM297.477 158.836H298.477V157.836H297.477V158.836ZM291.662 158.836V157.836H290.662V158.836H291.662ZM291.662 167.566V168.566H292.662V167.566H291.662ZM284.394 167.566H283.394V168.566H284.394V167.566ZM284.394 152.342V151.342H283.394V152.342H284.394ZM290.936 152.342V153.342H291.936V152.342H290.936ZM290.936 137.783H291.936V136.027L290.425 136.923L290.936 137.783ZM271.199 149.491L270.689 150.351L271.199 150.653L271.709 150.351L271.199 149.491ZM235.141 128.101L235.651 127.241L235.165 126.953L234.668 127.22L235.141 128.101ZM223.961 130.742L223.98 129.742H223.966L223.961 130.742ZM217.429 130.08L217.23 131.06L217.233 131.061L217.429 130.08ZM188.463 109.642L187.533 110.009L187.535 110.015L188.463 109.642ZM196.629 107.29L197.56 106.924L197.559 106.923L196.629 107.29ZM219.406 122.912L219.7 121.956L219.653 121.942L219.605 121.932L219.406 122.912ZM231.857 121.116L232.424 121.939L232.857 121.641V121.116H231.857ZM231.857 109.558H232.857V107.32L231.189 108.814L231.857 109.558ZM229.419 111.407L228.879 110.565L228.874 110.568L229.419 111.407ZM186.272 100.489L185.774 99.6216L185.755 99.6323L185.737 99.6437L186.272 100.489ZM181.415 110.598L182.409 110.482L182.405 110.45L182.399 110.419L181.415 110.598ZM207.201 134.491L206.857 135.43L206.859 135.431L207.201 134.491ZM205.482 141.549L205.444 142.549H205.459H205.475L205.482 141.549ZM203.978 141.255L203.629 142.192L203.633 142.194L203.978 141.255ZM173.121 111.296L174.115 111.187L174.113 111.166L174.109 111.144L173.121 111.296ZM181.716 94.387L181.221 93.5183L181.208 93.5256L181.195 93.5333L181.716 94.387ZM208.103 100.121L207.586 100.977L207.587 100.978L208.103 100.121ZM224.434 105.525L224.974 106.367L224.98 106.363L224.986 106.359L224.434 105.525ZM226.854 103.356L227.631 103.986L228.359 103.087L227.364 102.496L226.854 103.356ZM216.222 97.0502L215.643 97.8651L215.677 97.8891L215.712 97.9102L216.222 97.0502ZM214.355 95.2329L215.161 94.64L215.133 94.6023L215.102 94.5673L214.355 95.2329ZM213.39 94.1508L214.137 93.4853L213.819 93.1291L213.342 93.152L213.39 94.1508ZM213.381 94.1513L212.886 93.2828L213.429 95.1501L213.381 94.1513ZM213.39 94.1463L213.885 95.0149L214.975 94.3932L214.126 93.4696L213.39 94.1463ZM189.151 84.903L188.989 83.9162L188.979 83.9179L188.969 83.9197L189.151 84.903ZM166.804 101.996L165.873 101.63L165.804 101.807V101.996H166.804ZM166.804 102.033L167.761 102.321L167.804 102.18V102.033H166.804ZM183.005 142.946L183.732 142.259L183.73 142.256L183.005 142.946ZM182.404 148.092L181.826 147.276L181.817 147.283L181.808 147.29L182.404 148.092ZM179.696 148.938L179.709 147.938H179.693H179.676L179.696 148.938ZM176.258 147.578L176.984 146.89L176.98 146.886L176.258 147.578ZM158.208 100.268L157.271 99.9198L157.259 99.9515L157.25 99.984L158.208 100.268ZM187.518 77.6614L187.362 76.6737L187.352 76.6752L187.343 76.6769L187.518 77.6614ZM220.541 90.0665L219.8 90.7378L220.339 91.3331L221.037 90.9351L220.541 90.0665ZM226.11 86.8898L226.605 87.7584L227.47 87.2648L226.98 86.3977L226.11 86.8898ZM193.277 60.6786L193.309 59.6791L193.293 59.6786H193.277V60.6786ZM233.261 82.81L232.396 83.3117L232.894 84.1707L233.756 83.6786L233.261 82.81ZM240.453 78.7066L240.949 79.5752L241.855 79.0582L241.3 78.1748L240.453 78.7066ZM145.144 80.6757L146.01 81.1745L146.012 81.172L145.144 80.6757ZM139.342 82.3299L138.943 83.2467L138.944 83.2471L139.342 82.3299ZM137.451 77.4041L138.313 77.9105L138.319 77.9014L137.451 77.4041ZM239.335 122.794L238.366 123.04L238.468 123.443L238.825 123.654L239.335 122.794ZM271.199 141.696L270.689 142.556L271.199 142.858L271.709 142.556L271.199 141.696ZM239.125 122.209H238.125V122.431L238.22 122.632L239.125 122.209ZM239.125 110.636L239.636 109.776L238.125 108.88V110.636H239.125ZM271.172 129.646L270.662 130.506L271.172 130.809L271.683 130.506L271.172 129.646ZM290.936 117.923H291.936V116.167L290.425 117.062L290.936 117.923ZM290.936 129.988L291.446 130.848L291.936 130.558V129.988H290.936ZM237.088 101.632L237.598 100.772L236.558 100.155L236.147 101.292L237.088 101.632ZM271.172 121.851L270.662 122.711L271.172 123.013L271.683 122.711L271.172 121.851ZM288.008 111.864L288.518 112.724L289.965 111.865L288.52 111.005L288.008 111.864ZM269.157 100.639L268.355 100.041L267.692 100.93L268.645 101.498L269.157 100.639ZM273.188 95.2351L273.699 94.3759L272.925 93.9149L272.386 94.6372L273.188 95.2351ZM294.574 107.969L294.062 108.828L294.573 109.132L295.084 108.829L294.574 107.969ZM316.686 94.8524L317.196 95.7125L318.674 94.8355L317.181 93.9838L316.686 94.8524ZM271.172 68.8868L271.667 68.0182L271.172 67.7355L270.676 68.0182L271.172 68.8868ZM236.079 88.9071L235.584 88.0385L234.867 88.4473L235.132 89.2285L236.079 88.9071ZM236.08 88.9108L236.576 89.7796L237.293 89.3708L237.027 88.5893L236.08 88.9108ZM225.658 94.8522L225.163 93.9835L223.67 94.8352L225.148 95.7122L225.658 94.8522ZM228.851 96.7463L229.844 96.624L229.784 96.1367L229.362 95.8863L228.851 96.7463ZM228.852 96.7524L227.86 96.8748L227.92 97.3621L228.342 97.6126L228.852 96.7524ZM237.086 101.635L236.576 102.496L237.615 103.112L238.027 101.976L237.086 101.635ZM298.204 125.676H297.204V127.432L298.715 126.536L298.204 125.676ZM303.037 122.81L303.547 123.67L304.037 123.379V122.81H303.037ZM298.204 113.61L297.694 112.75L297.204 113.041V113.61H298.204ZM303.037 110.744H304.037V108.988L302.526 109.884L303.037 110.744ZM193.32 37.6229C185.737 37.6229 178.331 38.6167 171.906 40.374C165.496 42.1273 159.994 44.6593 156.276 47.7822L157.562 49.3137C160.978 46.4448 166.177 44.0143 172.434 42.3031C178.676 40.5958 185.904 39.6229 193.32 39.6229V37.6229ZM230.208 47.796C226.611 44.6425 221.141 42.1083 214.743 40.3601C208.328 38.6072 200.901 37.6229 193.32 37.6229V39.6229C200.737 39.6229 207.986 40.5869 214.216 42.2894C220.464 43.9966 225.61 46.425 228.889 49.2999L230.208 47.796ZM232.371 48.2758C231.539 48.3263 230.728 48.1165 230.088 47.7063L229.008 49.3897C230.024 50.0412 231.26 50.347 232.492 50.2721L232.371 48.2758ZM234.516 47.4466C233.962 47.9201 233.203 48.2252 232.371 48.2758L232.492 50.2721C233.724 50.1972 234.906 49.7442 235.816 48.9664L234.516 47.4466ZM235.417 45.785C235.368 46.381 235.066 46.9758 234.516 47.4466L235.816 48.9664C236.728 48.1859 237.313 47.1199 237.41 45.9506L235.417 45.785ZM234.813 44.0609C235.267 44.5792 235.466 45.1911 235.417 45.785L237.41 45.9506C237.508 44.7792 237.104 43.6399 236.317 42.7424L234.813 44.0609ZM193.277 32.2711C200.04 32.2711 207.95 33.0541 215.433 34.9425C222.928 36.834 229.916 39.8146 234.909 44.1563L236.221 42.6471C230.9 38.0194 223.576 34.9348 215.923 33.0033C208.256 31.0687 200.18 30.2711 193.277 30.2711V32.2711ZM151.554 44.1603C156.591 39.8336 163.603 36.8523 171.11 34.9562C178.604 33.0631 186.514 32.2711 193.277 32.2711V30.2711C186.373 30.2711 178.296 31.0781 170.62 33.0171C162.956 34.9532 155.614 38.0372 150.251 42.6431L151.554 44.1603ZM151.05 45.785C151.001 45.1911 151.2 44.5792 151.654 44.0609L150.151 42.7424C149.364 43.6399 148.96 44.7792 149.057 45.9506L151.05 45.785ZM151.952 47.4466C151.401 46.9758 151.1 46.381 151.05 45.785L149.057 45.9506C149.154 47.1199 149.739 48.1859 150.652 48.9664L151.952 47.4466ZM154.097 48.2758C153.265 48.2252 152.505 47.9201 151.952 47.4466L150.652 48.9664C151.561 49.7442 152.743 50.1972 153.975 50.2721L154.097 48.2758ZM156.379 47.7063C155.74 48.1165 154.928 48.3263 154.097 48.2758L153.975 50.2721C155.207 50.347 156.443 50.0412 157.459 49.3897L156.379 47.7063ZM248.461 74.0801C236.116 54.7733 217.55 44.9748 193.32 44.9748V46.9748C216.915 46.9748 234.823 56.4641 246.776 75.1575L248.461 74.0801ZM270.676 60.3132L247.123 73.7502L248.114 75.4874L271.667 62.0504L270.676 60.3132ZM330.502 93.8776L271.667 60.3132L270.676 62.0504L329.511 95.6148L330.502 93.8776ZM310.816 107.292L330.516 95.6063L329.496 93.8862L309.795 105.572L310.816 107.292ZM311.306 126.293V106.432H309.306V126.293H311.306ZM298.715 134.331L310.816 127.153L309.795 125.433L297.694 132.611L298.715 134.331ZM299.204 152.342V133.471H297.204V152.342H299.204ZM304.746 151.342H298.204V153.342H304.746V151.342ZM305.746 167.566V152.342H303.746V167.566H305.746ZM297.477 168.566H304.746V166.566H297.477V168.566ZM296.477 158.836V167.566H298.477V158.836H296.477ZM291.662 159.836H297.477V157.836H291.662V159.836ZM292.662 167.566V158.836H290.662V167.566H292.662ZM284.394 168.566H291.662V166.566H284.394V168.566ZM283.394 152.342V167.566H285.394V152.342H283.394ZM290.936 151.342H284.394V153.342H290.936V151.342ZM289.936 137.783V152.342H291.936V137.783H289.936ZM271.709 150.351L291.446 138.643L290.425 136.923L270.689 148.63L271.709 150.351ZM234.631 128.962L270.689 150.351L271.709 148.63L235.651 127.241L234.631 128.962ZM232.177 130.474C233.374 130.067 234.525 129.567 235.614 128.982L234.668 127.22C233.678 127.752 232.629 128.208 231.533 128.58L232.177 130.474ZM223.943 131.742C226.756 131.794 229.555 131.364 232.177 130.474L231.533 128.58C229.135 129.394 226.566 129.79 223.98 129.742L223.943 131.742ZM217.233 131.061C219.438 131.502 221.693 131.731 223.957 131.742L223.966 129.742C221.831 129.732 219.704 129.516 217.625 129.1L217.233 131.061ZM187.535 110.015C189.356 114.55 193.688 119.173 199.033 122.952C204.398 126.746 210.907 129.779 217.23 131.06L217.628 129.1C211.617 127.882 205.362 124.978 200.188 121.319C194.993 117.646 191.009 113.299 189.391 109.27L187.535 110.015ZM187.251 108.137C187.2 108.774 187.298 109.411 187.533 110.009L189.394 109.276C189.268 108.956 189.219 108.624 189.245 108.295L187.251 108.137ZM187.822 106.327C187.498 106.885 187.302 107.5 187.251 108.137L189.245 108.295C189.271 107.967 189.373 107.639 189.552 107.33L187.822 106.327ZM189.115 104.888C188.587 105.282 188.145 105.769 187.822 106.327L189.552 107.33C189.731 107.02 189.987 106.733 190.311 106.491L189.115 104.888ZM190.894 104.013C190.248 104.199 189.642 104.494 189.115 104.888L190.311 106.491C190.636 106.248 191.022 106.057 191.448 105.935L190.894 104.013ZM192.896 103.791C192.22 103.752 191.54 103.827 190.894 104.013L191.448 105.935C191.874 105.812 192.327 105.761 192.78 105.788L192.896 103.791ZM194.851 104.244C194.236 103.983 193.572 103.83 192.896 103.791L192.78 105.788C193.233 105.814 193.672 105.916 194.07 106.085L194.851 104.244ZM196.492 105.328C196.025 104.871 195.466 104.505 194.851 104.244L194.07 106.085C194.468 106.254 194.814 106.485 195.092 106.757L196.492 105.328ZM197.559 106.923C197.324 106.326 196.958 105.786 196.492 105.328L195.092 106.757C195.369 107.029 195.572 107.336 195.698 107.656L197.559 106.923ZM219.605 121.932C214.61 120.918 209.602 118.504 205.567 115.637C201.5 112.747 198.572 109.505 197.56 106.924L195.698 107.655C196.92 110.772 200.223 114.293 204.408 117.267C208.625 120.263 213.888 122.812 219.207 123.892L219.605 121.932ZM226.188 122.349C224.022 122.731 221.776 122.594 219.7 121.956L219.113 123.868C221.494 124.6 224.061 124.755 226.535 124.319L226.188 122.349ZM231.289 120.293C229.817 121.308 228.07 122.018 226.188 122.349L226.535 124.319C228.686 123.94 230.705 123.126 232.424 121.939L231.289 120.293ZM230.857 109.558V121.116H232.857V109.558H230.857ZM229.959 112.248C230.886 111.654 231.742 111.004 232.524 110.303L231.189 108.814C230.489 109.441 229.719 110.026 228.879 110.565L229.959 112.248ZM202.477 106.989C206.253 109.325 210.782 112.132 215.485 113.615C220.22 115.108 225.264 115.3 229.964 112.245L228.874 110.568C224.846 113.186 220.479 113.093 216.087 111.708C211.663 110.313 207.348 107.65 203.529 105.288L202.477 106.989ZM202.377 106.927L202.477 106.989L203.529 105.288L203.429 105.226L202.377 106.927ZM186.769 101.356C188.194 100.539 190.078 100.627 192.742 101.664C195.393 102.696 198.561 104.566 202.377 106.927L203.429 105.226C199.639 102.881 196.317 100.91 193.468 99.8007C190.631 98.6965 188.002 98.3434 185.774 99.6216L186.769 101.356ZM183.095 105.397C183.863 103.798 185.139 102.388 186.806 101.334L185.737 99.6437C183.781 100.88 182.237 102.565 181.292 104.531L183.095 105.397ZM182.399 110.419C182.091 108.727 182.328 106.993 183.095 105.397L181.292 104.531C180.347 106.498 180.046 108.661 180.432 110.777L182.399 110.419ZM207.545 133.553C189.986 127.116 183.207 117.312 182.409 110.482L180.422 110.714C181.343 118.587 188.917 128.854 206.857 135.43L207.545 133.553ZM210.18 135.65C209.589 134.684 208.647 133.954 207.543 133.552L206.859 135.431C207.583 135.695 208.143 136.153 208.473 136.693L210.18 135.65ZM210.696 138.86C210.963 137.761 210.773 136.623 210.18 135.65L208.473 136.693C208.799 137.227 208.89 137.822 208.753 138.387L210.696 138.86ZM208.782 141.558C209.737 140.9 210.429 139.954 210.696 138.86L208.753 138.387C208.614 138.956 208.239 139.503 207.647 139.912L208.782 141.558ZM205.475 142.549C206.661 142.558 207.83 142.215 208.782 141.558L207.647 139.912C207.052 140.322 206.29 140.555 205.489 140.549L205.475 142.549ZM203.633 142.194C204.21 142.406 204.823 142.525 205.444 142.549L205.52 140.55C205.104 140.534 204.698 140.454 204.322 140.316L203.633 142.194ZM172.127 111.405C173.213 121.315 182.178 134.207 203.629 142.192L204.327 140.318C183.317 132.497 175.092 120.099 174.115 111.187L172.127 111.405ZM173.786 101.369C172.18 104.529 171.604 108.016 172.133 111.448L174.109 111.144C173.647 108.136 174.147 105.073 175.569 102.275L173.786 101.369ZM181.195 93.5333C177.959 95.5079 175.391 98.2114 173.786 101.369L175.569 102.275C176.992 99.4758 179.29 97.0388 182.237 95.2406L181.195 93.5333ZM208.087 98.9435C204.284 96.6456 199.891 93.9853 195.336 92.5478C190.751 91.1008 185.888 90.8567 181.221 93.5183L182.212 95.2556C186.237 92.9602 190.478 93.1119 194.734 94.4551C199.021 95.8079 203.208 98.3322 207.053 100.655L208.087 98.9435ZM208.62 99.2654L208.087 98.9435L207.053 100.655L207.586 100.977L208.62 99.2654ZM223.894 104.683C222.591 105.519 220.844 105.479 218.242 104.469C215.653 103.463 212.509 101.612 208.62 99.2654L207.587 100.978C211.434 103.299 214.735 105.252 217.518 106.333C220.289 107.409 222.839 107.737 224.974 106.367L223.894 104.683ZM226.077 102.727C225.511 103.425 224.792 104.089 223.882 104.691L224.986 106.359C226.058 105.649 226.931 104.849 227.631 103.986L226.077 102.727ZM215.712 97.9102L226.343 104.216L227.364 102.496L216.733 96.1901L215.712 97.9102ZM215.658 97.8748C215.657 97.8744 215.651 97.8712 215.643 97.8651L216.802 96.2352C216.756 96.2023 216.709 96.1725 216.662 96.1456L215.658 97.8748ZM213.55 95.8257C213.73 96.0701 214.035 96.4465 214.391 96.82C214.737 97.1817 215.187 97.6014 215.658 97.8748L216.662 96.1456C216.439 96.0158 216.144 95.7592 215.838 95.4391C215.544 95.1308 215.293 94.8201 215.161 94.64L213.55 95.8257ZM212.644 94.8164L213.609 95.8984L215.102 94.5673L214.137 93.4853L212.644 94.8164ZM213.429 95.1501L213.439 95.1497L213.342 93.152L213.333 93.1525L213.429 95.1501ZM212.894 93.2778L212.886 93.2828L213.877 95.0198L213.885 95.0149L212.894 93.2778ZM189.313 85.8898C197.885 84.4823 205.916 87.4918 212.654 94.823L214.126 93.4696C206.999 85.7144 198.318 82.3845 188.989 83.9162L189.313 85.8898ZM175.944 91.7181C179.729 88.823 184.342 86.8092 189.333 85.8864L188.969 83.9197C183.687 84.8963 178.779 87.0319 174.729 90.1295L175.944 91.7181ZM167.734 102.362C169.338 98.2841 172.16 94.6127 175.944 91.7181L174.729 90.1295C170.679 93.2277 167.62 97.187 165.873 101.63L167.734 102.362ZM167.804 102.033V101.996H165.804V102.033H167.804ZM183.73 142.256C169.452 127.265 164.268 113.922 167.761 102.321L165.846 101.745C162.033 114.405 167.851 128.484 182.281 143.636L183.73 142.256ZM184.935 145.741C185.085 144.461 184.632 143.21 183.732 142.259L182.279 143.634C182.804 144.188 183.024 144.862 182.948 145.509L184.935 145.741ZM182.981 148.909C184.059 148.147 184.786 147.017 184.935 145.741L182.948 145.509C182.872 146.16 182.494 146.804 181.826 147.276L182.981 148.909ZM179.684 149.938C180.881 149.953 182.062 149.591 183 148.895L181.808 147.29C181.245 147.707 180.498 147.948 179.709 147.938L179.684 149.938ZM177.425 149.529C178.147 149.815 178.93 149.953 179.716 149.938L179.676 147.938C179.149 147.949 178.63 147.855 178.16 147.669L177.425 149.529ZM175.532 148.266C176.053 148.815 176.702 149.243 177.425 149.529L178.16 147.669C177.691 147.484 177.291 147.214 176.984 146.89L175.532 148.266ZM157.25 99.984C152.8 114.979 159.237 131.258 175.536 148.27L176.98 146.886C160.876 130.079 155.021 114.524 159.167 100.553L157.25 99.984ZM168.674 84.7788C163.387 88.8563 159.445 94.078 157.271 99.9198L159.146 100.617C161.178 95.1536 164.881 90.2301 169.895 86.3624L168.674 84.7788ZM187.343 76.6769C180.404 77.9102 173.96 80.7018 168.674 84.7788L169.895 86.3624C174.91 82.4942 181.052 79.8265 187.693 78.646L187.343 76.6769ZM221.282 89.3953C208.841 75.6557 194.738 75.5066 187.362 76.6737L187.674 78.6491C194.63 77.5485 207.957 77.6591 219.8 90.7378L221.282 89.3953ZM225.614 86.0212L220.046 89.198L221.037 90.9351L226.605 87.7584L225.614 86.0212ZM193.277 69.0305C207.964 69.0305 219.955 78.0347 225.239 87.3819L226.98 86.3977C221.386 76.5017 208.771 67.0305 193.277 67.0305V69.0305ZM150.613 115.818C150.613 110.365 151.394 98.6208 157.122 88.2729C159.978 83.114 164.056 78.3154 169.874 74.8025C175.69 71.2907 183.301 69.0305 193.277 69.0305V67.0305C182.989 67.0305 175.01 69.3651 168.84 73.0904C162.672 76.8145 158.367 81.895 155.373 87.3043C149.401 98.0931 148.613 110.242 148.613 115.818H150.613ZM149.004 119.177C150.01 118.316 150.613 117.113 150.613 115.818H148.613C148.613 116.472 148.31 117.139 147.704 117.657L149.004 119.177ZM145.316 120.494C146.674 120.494 148.003 120.033 149.004 119.177L147.704 117.657C147.094 118.179 146.236 118.494 145.316 118.494V120.494ZM141.627 119.177C142.628 120.033 143.957 120.494 145.316 120.494V118.494C144.395 118.494 143.537 118.179 142.927 117.657L141.627 119.177ZM140.018 115.818C140.018 117.113 140.621 118.316 141.627 119.177L142.927 117.657C142.321 117.139 142.018 116.472 142.018 115.818H140.018ZM193.277 59.6786C173.747 59.6786 160.381 66.9184 151.922 77.6346C143.493 88.3136 140.018 102.339 140.018 115.818H142.018C142.018 102.645 145.419 89.1016 153.492 78.8738C161.536 68.683 174.3 61.6786 193.277 61.6786V59.6786ZM219.919 67.7288C212.193 62.7961 202.914 59.9944 193.309 59.6791L193.244 61.678C202.509 61.9822 211.436 64.6852 218.843 69.4145L219.919 67.7288ZM234.126 82.3084C230.798 76.5702 225.937 71.5712 219.919 67.7288L218.843 69.4145C224.611 73.0972 229.239 77.8689 232.396 83.3117L234.126 82.3084ZM239.958 77.838L232.765 81.9415L233.756 83.6786L240.949 79.5752L239.958 77.838ZM193.234 54.3267C213.891 54.3267 229.084 62.4831 239.607 79.2384L241.3 78.1748C230.393 60.8057 214.541 52.3267 193.234 52.3267V54.3267ZM146.012 81.172C151.18 72.1314 157.635 65.4345 165.445 60.9918C173.256 56.5481 182.48 54.3267 193.234 54.3267V52.3267C182.199 52.3267 172.621 54.6083 164.456 59.2534C156.289 63.8994 149.593 70.877 144.276 80.1794L146.012 81.172ZM144.712 82.6231C145.243 82.2268 145.687 81.7363 146.01 81.1745L144.277 80.1769C144.098 80.4882 143.842 80.7769 143.516 81.0205L144.712 82.6231ZM142.921 83.5013C143.572 83.3158 144.181 83.0193 144.712 82.6231L143.516 81.0205C143.189 81.2642 142.801 81.4558 142.373 81.578L142.921 83.5013ZM140.906 83.7162C141.586 83.7593 142.27 83.6869 142.921 83.5013L142.373 81.578C141.944 81.7002 141.488 81.7491 141.033 81.7202L140.906 83.7162ZM138.944 83.2471C139.56 83.5148 140.227 83.6731 140.906 83.7162L141.033 81.7202C140.578 81.6913 140.138 81.5856 139.74 81.4127L138.944 83.2471ZM136.275 80.5591C136.737 81.7626 137.716 82.7127 138.943 83.2467L139.741 81.413C138.943 81.0656 138.389 80.4847 138.142 79.8423L136.275 80.5591ZM136.589 76.8978C135.928 78.0227 135.809 79.346 136.275 80.5591L138.142 79.8423C137.899 79.2094 137.954 78.5219 138.313 77.9105L136.589 76.8978ZM193.32 44.9748C167.927 44.9748 148.719 55.7361 136.583 76.9068L138.319 77.9014C150.078 57.3869 168.603 46.9748 193.32 46.9748V44.9748ZM238.825 123.654L270.689 142.556L271.709 140.836L239.845 121.934L238.825 123.654ZM238.22 122.632C238.282 122.766 238.331 122.902 238.366 123.04L240.304 122.548C240.238 122.286 240.146 122.031 240.031 121.785L238.22 122.632ZM238.125 110.636V122.209H240.125V110.636H238.125ZM271.683 128.786L239.636 109.776L238.615 111.496L270.662 130.506L271.683 128.786ZM290.425 117.062L270.662 128.786L271.683 130.506L291.446 118.783L290.425 117.062ZM291.936 129.988V117.923H289.936V129.988H291.936ZM271.709 142.556L291.446 130.848L290.425 129.128L270.689 140.836L271.709 142.556ZM236.577 102.492L270.662 122.711L271.683 120.991L237.598 100.772L236.577 102.492ZM271.683 122.711L288.518 112.724L287.498 111.004L270.662 120.991L271.683 122.711ZM288.52 111.005L269.668 99.7797L268.645 101.498L287.496 112.723L288.52 111.005ZM269.958 101.237L273.989 95.8331L272.386 94.6372L268.355 100.041L269.958 101.237ZM272.676 96.0943L294.062 108.828L295.085 107.11L273.699 94.3759L272.676 96.0943ZM295.084 108.829L317.196 95.7125L316.176 93.9923L294.064 107.109L295.084 108.829ZM317.181 93.9838L271.667 68.0182L270.676 69.7554L316.19 95.721L317.181 93.9838ZM270.676 68.0182L235.584 88.0385L236.575 89.7756L271.667 69.7554L270.676 68.0182ZM235.132 89.2285C235.133 89.2309 235.134 89.2331 235.134 89.2335C235.134 89.2343 235.134 89.2334 235.134 89.2322L237.027 88.5893C237.027 88.5869 237.026 88.5847 237.026 88.5844C237.025 88.5835 237.026 88.5844 237.026 88.5856L235.132 89.2285ZM228.125 92.2942L225.163 93.9835L226.154 95.7208L229.115 94.0315L228.125 92.2942ZM225.148 95.7122L228.341 97.6064L229.362 95.8863L226.168 93.9921L225.148 95.7122ZM227.859 96.8687L227.86 96.8748L229.845 96.6301L229.844 96.624L227.859 96.8687ZM238.027 101.976L238.028 101.972L236.147 101.292L236.146 101.295L238.027 101.976ZM298.715 126.536L303.547 123.67L302.526 121.95L297.694 124.816L298.715 126.536ZM297.204 113.61V125.676H299.204V113.61H297.204ZM302.526 109.884L297.694 112.75L298.715 114.47L303.547 111.604L302.526 109.884ZM304.037 122.81V110.744H302.037V122.81H304.037ZM235.585 88.042L228.125 92.2942L229.115 94.0315L236.576 89.7796L235.585 88.042ZM228.342 97.6126L236.576 102.496L237.596 100.775L229.362 95.8923L228.342 97.6126Z" fill="black"/>
</g>
</g>
<defs>
<filter id="filter0_d_3205_41" x="132.994" y="31.2711" width="201.012" height="144.295" filterUnits="userSpaceOnUse" color-interpolation-filters="sRGB">
<feFlood flood-opacity="0" result="BackgroundImageFix"/>
<feColorMatrix in="SourceAlpha" type="matrix" values="0 0 0 0 0 0 0 0 0 0 0 0 0 0 0 0 0 0 127 0" result="hardAlpha"/>
<feOffset dy="4"/>
<feGaussianBlur stdDeviation="2"/>
<feComposite in2="hardAlpha" operator="out"/>
<feColorMatrix type="matrix" values="0 0 0 0 0 0 0 0 0 0 0 0 0 0 0 0 0 0 0.25 0"/>
<feBlend mode="normal" in2="BackgroundImageFix" result="effect1_dropShadow_3205_41"/>
<feBlend mode="normal" in="SourceGraphic" in2="effect1_dropShadow_3205_41" result="shape"/>
</filter>
</defs>
</svg>
