<svg xmlns="http://www.w3.org/2000/svg" width="467" height="268" fill="none"><path fill="#000" d="M127.304 215.963h-24.097v8.033h24.097v6.733h-24.097a6.7 6.7 0 0 1-2.598-.513 7.4 7.4 0 0 1-2.153-1.435 7.4 7.4 0 0 1-1.436-2.154 6.8 6.8 0 0 1-.512-2.631v-22.935q0-1.401.513-2.632a7 7 0 0 1 1.435-2.119 6.6 6.6 0 0 1 2.153-1.436 6.3 6.3 0 0 1 2.598-.546h17.363q1.402 0 2.632.546 1.23.513 2.119 1.436a6.2 6.2 0 0 1 1.436 2.119q.547 1.23.547 2.632zm-24.097-14.902v8.169h17.363v-8.169zm35.342 0q0-1.401.513-2.632a7 7 0 0 1 1.435-2.119 6.6 6.6 0 0 1 2.153-1.436 6.3 6.3 0 0 1 2.598-.546h18.765v-14.014h6.733v50.415h-6.733v-6.152a6.3 6.3 0 0 1-.684 2.392 7.1 7.1 0 0 1-1.504 1.983 6.8 6.8 0 0 1-2.051 1.298 6.4 6.4 0 0 1-2.461.479h-12.065a6.7 6.7 0 0 1-2.598-.513 7.4 7.4 0 0 1-2.153-1.435 7.4 7.4 0 0 1-1.435-2.154 6.8 6.8 0 0 1-.513-2.631zm6.699 22.935h18.765v-22.935h-18.765zm36.709-29.668h6.699v29.668h18.765v-29.668h6.733v36.401h-6.733v-6.152a6.3 6.3 0 0 1-.684 2.392 7.1 7.1 0 0 1-1.504 1.983 6.8 6.8 0 0 1-2.05 1.298 6.4 6.4 0 0 1-2.461.479h-12.066a6.7 6.7 0 0 1-2.597-.513 7.4 7.4 0 0 1-2.154-1.435 7.4 7.4 0 0 1-1.435-2.154 6.8 6.8 0 0 1-.513-2.631zm69.385 36.401-18.286-35.923v35.923h-7.007v-49.014h7.656l18.662 36.914 18.696-36.914h7.623v49.014h-6.973v-35.923l-18.286 35.923zm39.99-49.014h35.718v7.007h-28.711v14.014h24.507v7.007h-24.507v20.986h-7.007zm63.745 0 18.902 49.014h-7.007l-4.341-11.279h-22.114l-4.341 11.279h-7.007l18.901-49.014zm-11.894 30.728h16.748l-8.34-21.602z"/><g filter="url(#a)"><path fill="#000" d="M156.919 48.548c7.134-5.992 21.402-9.925 36.401-9.925 14.998 0 29.352 3.896 36.228 9.925.828.53 1.852.789 2.884.726s2.002-.442 2.734-1.068c.731-.625 1.174-1.456 1.248-2.338.073-.883-.228-1.759-.849-2.466-10.314-8.97-28.622-12.13-42.288-12.13-13.667 0-31.974 3.197-42.375 12.13-.62.707-.922 1.583-.848 2.466.073.882.516 1.713 1.248 2.338.731.626 1.702 1.005 2.734 1.068s2.055-.195 2.883-.726"/><path fill="#000" fill-rule="evenodd" d="M193.32 45.975c23.913 0 42.15 9.644 54.299 28.644l23.553-13.437 58.834 33.564-19.7 11.686v19.861l-12.102 7.178v18.871h6.542v15.224h-7.269v-8.73h-5.815v8.73h-7.268v-15.224h6.542v-14.559l-19.737 11.708-36.058-21.39a21.7 21.7 0 0 1-3.286 1.426 23.3 23.3 0 0 1-7.894 1.215 34 34 0 0 1-6.532-.662c-12.334-2.499-25.528-11.873-28.966-20.438a3.2 3.2 0 0 1 .224-2.814c.251-.433.6-.82 1.026-1.138a4.5 4.5 0 0 1 1.458-.716 5 5 0 0 1 1.667-.185 4.9 4.9 0 0 1 1.623.376c.506.215.959.513 1.331.878.372.364.656.788.837 1.247 2.235 5.697 12.463 13.527 22.777 15.622 2.229.685 4.636.831 6.956.422 2.016-.355 3.899-1.117 5.495-2.218v-11.558a19 19 0 0 1-2.438 1.849c-8.728 5.672-18.821-.57-26.416-5.269l-.1-.062c-7.606-4.705-12.978-7.682-16.631-5.587-1.812 1.145-3.222 2.693-4.078 4.475s-1.126 3.73-.779 5.634c.86 7.352 8.037 17.387 25.786 23.893.914.333 1.665.927 2.125 1.68.46.754.601 1.62.398 2.452s-.736 1.578-1.509 2.112c-.774.533-1.74.821-2.733.814a4.9 4.9 0 0 1-1.504-.294c-21.23-7.903-29.826-20.548-30.857-29.959-.496-3.22.043-6.495 1.557-9.474s3.947-5.549 7.038-7.435c8.693-4.957 18.207.791 25.854 5.412l.533.322c7.736 4.669 12.893 7.61 16.331 5.404a10.7 10.7 0 0 0 2.42-2.169l-10.632-6.306a1 1 0 0 0-.062-.04c-.694-.403-1.492-1.353-1.805-1.777l-.965-1.082h-.009l.009-.005c-6.933-7.543-15.289-10.713-24.239-9.243-5.137.95-9.897 3.024-13.814 6.02-3.918 2.997-6.858 6.813-8.533 11.073v.037c-3.653 12.131 1.847 25.842 16.201 40.913.713.753 1.049 1.715.937 2.679-.113.964-.666 1.85-1.538 2.467-.75.557-1.714.858-2.708.846a4.9 4.9 0 0 1-1.903-.339 4.3 4.3 0 0 1-1.535-1.021c-16.202-16.91-22.347-32.826-18.05-47.31 2.104-5.652 5.926-10.725 11.077-14.697 5.15-3.973 11.443-6.703 18.233-7.91 7.166-1.133 20.881-1.004 33.023 12.406l5.569-3.177c-5.439-9.622-17.743-18.86-32.833-18.86-40.527 0-43.664 36.76-43.664 47.788 0 .975-.453 1.91-1.259 2.599s-1.899 1.077-3.038 1.077c-1.14 0-2.233-.388-3.039-1.077s-1.259-1.624-1.259-2.599c0-26.65 13.752-55.14 52.259-55.14 9.435.31 18.537 3.063 26.104 7.894 5.893 3.762 10.638 8.647 13.88 14.238l7.192-4.103c-10.714-17.063-26.237-25.38-47.219-25.38-21.789 0-37.604 9.006-48.09 27.349a3.8 3.8 0 0 1-1.03 1.146c-.429.32-.927.564-1.467.718a5 5 0 0 1-3.305-.21c-1.012-.44-1.779-1.206-2.134-2.13a3.2 3.2 0 0 1 .243-2.796c11.947-20.842 30.814-31.43 55.869-31.43m77.879 95.721-31.864-18.902a3.3 3.3 0 0 0-.21-.585v-11.573l32.047 19.01 19.764-11.723v12.065zm-34.111-40.064 34.084 20.219 16.836-9.987-18.851-11.225 4.031-5.404 21.386 12.734 22.112-13.117-45.514-25.965-35.093 20.02.001.004-7.46 4.252-2.962 1.69 3.193 1.893.001.006 8.234 4.883zm65.949 21.178-4.833 2.866V113.61l4.833-2.866z" clip-rule="evenodd"/><mask id="b" width="195" height="137" x="136" y="31" maskUnits="userSpaceOnUse" style="mask-type:luminance"><path fill="#fff" d="M156.919 48.548c7.134-5.992 21.402-9.925 36.401-9.925 14.998 0 29.352 3.896 36.228 9.925.828.53 1.852.789 2.884.726s2.002-.442 2.734-1.068c.731-.625 1.174-1.456 1.248-2.338.073-.883-.228-1.759-.849-2.466-10.314-8.97-28.622-12.13-42.288-12.13-13.667 0-31.974 3.197-42.375 12.13-.62.707-.922 1.583-.848 2.466.073.882.516 1.713 1.248 2.338.731.626 1.702 1.005 2.734 1.068s2.055-.195 2.883-.726"/><path fill="#fff" fill-rule="evenodd" d="M193.32 45.975c23.913 0 42.15 9.644 54.299 28.644l23.553-13.437 58.834 33.564-19.7 11.686v19.861l-12.102 7.178v18.871h6.542v15.224h-7.269v-8.73h-5.815v8.73h-7.268v-15.224h6.542v-14.559l-19.737 11.708-36.058-21.39a21.7 21.7 0 0 1-3.286 1.426 23.3 23.3 0 0 1-7.894 1.215 34 34 0 0 1-6.532-.662c-12.334-2.499-25.528-11.873-28.966-20.438a3.2 3.2 0 0 1 .224-2.814c.251-.433.6-.82 1.026-1.138a4.5 4.5 0 0 1 1.458-.716 5 5 0 0 1 1.667-.185 4.9 4.9 0 0 1 1.623.376c.506.215.959.513 1.331.878.372.364.656.788.837 1.247 2.235 5.697 12.463 13.527 22.777 15.622 2.229.685 4.636.831 6.956.422 2.016-.355 3.899-1.117 5.495-2.218v-11.558a19 19 0 0 1-2.438 1.849c-8.728 5.672-18.821-.57-26.416-5.269l-.1-.062c-7.606-4.705-12.978-7.682-16.631-5.587-1.812 1.145-3.222 2.693-4.078 4.475s-1.126 3.73-.779 5.634c.86 7.352 8.037 17.387 25.786 23.893.914.333 1.665.927 2.125 1.68.46.754.601 1.62.398 2.452s-.736 1.578-1.509 2.112c-.774.533-1.74.821-2.733.814a4.9 4.9 0 0 1-1.504-.294c-21.23-7.903-29.826-20.548-30.857-29.959-.496-3.22.043-6.495 1.557-9.474s3.947-5.549 7.038-7.435c8.693-4.957 18.207.791 25.854 5.412l.533.322c7.736 4.669 12.893 7.61 16.331 5.404a10.7 10.7 0 0 0 2.42-2.169l-10.632-6.306a1 1 0 0 0-.062-.04c-.694-.403-1.492-1.353-1.805-1.777l-.965-1.082h-.009l.009-.005c-6.933-7.543-15.289-10.713-24.239-9.243-5.137.95-9.897 3.024-13.814 6.02-3.918 2.997-6.858 6.813-8.533 11.073v.037c-3.653 12.131 1.847 25.842 16.201 40.913.713.753 1.049 1.715.937 2.679-.113.964-.666 1.85-1.538 2.467-.75.557-1.714.858-2.708.846a4.9 4.9 0 0 1-1.903-.339 4.3 4.3 0 0 1-1.535-1.021c-16.202-16.91-22.347-32.826-18.05-47.31 2.104-5.652 5.926-10.725 11.077-14.697 5.15-3.973 11.443-6.703 18.233-7.91 7.166-1.133 20.881-1.004 33.023 12.406l5.569-3.177c-5.439-9.622-17.743-18.86-32.833-18.86-40.527 0-43.664 36.76-43.664 47.788 0 .975-.453 1.91-1.259 2.599s-1.899 1.077-3.038 1.077c-1.14 0-2.233-.388-3.039-1.077s-1.259-1.624-1.259-2.599c0-26.65 13.752-55.14 52.259-55.14 9.435.31 18.537 3.063 26.104 7.894 5.893 3.762 10.638 8.647 13.88 14.238l7.192-4.103c-10.714-17.063-26.237-25.38-47.219-25.38-21.789 0-37.604 9.006-48.09 27.349a3.8 3.8 0 0 1-1.03 1.146c-.429.32-.927.564-1.467.718a5 5 0 0 1-3.305-.21c-1.012-.44-1.779-1.206-2.134-2.13a3.2 3.2 0 0 1 .243-2.796c11.947-20.842 30.814-31.43 55.869-31.43m77.879 95.721-31.864-18.902a3.3 3.3 0 0 0-.21-.585v-11.573l32.047 19.01 19.764-11.723v12.065zm-34.111-40.064 34.084 20.219 16.836-9.987-18.851-11.225 4.031-5.404 21.386 12.734 22.112-13.117-45.514-25.965-35.093 20.02.001.004-7.46 4.252-2.962 1.69 3.193 1.893.001.006 8.234 4.883zm65.949 21.178-4.833 2.866V113.61l4.833-2.866z" clip-rule="evenodd"/></mask><g mask="url(#b)"><path fill="#000" d="m156.919 48.548.54.842.054-.035.049-.041zm72.629 0-.659.752.056.05.063.04zm6.017-5.146.752-.66-.045-.05-.051-.045zm-84.663 0-.651-.759-.054.046-.046.053zm96.717 31.217-.843.538.512.802.826-.472zm23.553-13.437.495-.869-.495-.282-.496.282zm58.834 33.564.51.86 1.479-.877-1.493-.851zm-19.7 11.686-.511-.86-.489.291v.569zm0 19.861.51.86.49-.29v-.57zm-12.102 7.178-.51-.86-.49.291v.569zm0 18.871h-1v1h1zm6.542 0h1v-1h-1zm0 15.224v1h1v-1zm-7.269 0h-1v1h1zm0-8.73h1v-1h-1zm-5.815 0v-1h-1v1zm0 8.73v1h1v-1zm-7.268 0h-1v1h1zm0-15.224v-1h-1v1zm6.542 0v1h1v-1zm0-14.559h1v-1.756l-1.511.896zm-19.737 11.708-.51.86.51.302.51-.302zm-36.058-21.39.51-.86-.486-.288-.497.267zm-11.18 2.641.019-1h-.014zm-6.532-.662-.199.98.003.001zm-28.966-20.438-.93.367.002.006zm8.166-2.352.931-.366-.001-.001zm22.777 15.622.294-.956-.047-.014-.048-.01zm12.451-1.796.567.823.433-.298v-.525zm0-11.558h1v-2.238l-1.668 1.494zm-2.438 1.849-.54-.842-.005.003zm-43.147-10.918-.498-.867-.019.01-.018.012zm-4.857 10.109.994-.116-.004-.032-.006-.031zm25.786 23.893-.344.939.002.001zm-1.719 7.058-.038 1h.031zm-1.504-.294-.349.937.004.002zm-30.857-29.959.994-.109-.002-.021-.004-.022zm8.595-16.909-.495-.869-.013.008-.013.007zm26.387 5.734-.517.856.001.001zm16.331 5.404.54.842.006-.004.006-.004zm2.42-2.169.777.63.728-.899-.995-.591zm-10.632-6.306-.579.815.034.024.035.021zm-1.867-1.817.806-.593-.028-.038-.031-.035zm-.965-1.082.747-.666-.318-.356-.477.023zm-.009 0-.495-.868.543 1.867zm.009-.005.495.869 1.09-.622-.849-.923zm-24.239-9.243-.162-.987-.01.002-.01.002zm-22.347 17.093-.931-.366-.069.177v.189zm0 .037.957.288.043-.141v-.147zm16.201 40.913.727-.687-.002-.003zm-.601 5.146-.578-.816-.009.007-.009.007zm-2.708.846.013-1h-.033zm-3.438-1.36.726-.688-.004-.004zm-18.05-47.31-.937-.348-.012.031-.009.033zm29.31-22.607-.156-.987-.01.001-.009.002zm33.023 12.406-.741.67.539.596.698-.398zm5.569-3.177.495.868.865-.493-.49-.867zm-32.833-26.211.032-1h-.032zm39.984 22.131-.865.502.498.859.862-.492zm7.192-4.103.496.868.906-.517-.555-.883zm-95.309 1.969.866.498.002-.002zm-5.802 1.654-.399.917h.001zm-1.891-4.926.862.507.006-.01zm101.884 45.39-.969.246.102.403.357.211zm31.864 18.902-.51.86.51.302.51-.302zm-32.074-19.487h-1v.222l.095.201zm0-11.573.511-.86-1.511-.896v1.756zm32.047 19.01-.51.86.51.303.511-.303zm19.764-11.723h1v-1.756l-1.511.895zm0 12.065.51.86.49-.29v-.57zm-53.848-28.356.51-.86-1.04-.617-.411 1.137zm34.084 20.219-.51.86.51.302.511-.302zm16.836-9.987.51.86 1.447-.859-1.445-.86zm-18.851-11.225-.802-.598-.663.889.953.568zm4.031-5.404.511-.86-.774-.46-.539.722zm21.386 12.734-.512.859.511.304.511-.303zm22.112-13.117.51.86 1.478-.877-1.493-.851zm-45.514-25.965.495-.869-.495-.282-.496.282zm-35.093 20.02-.495-.868-.717.408.265.781zm.001.004.496.869.717-.41-.266-.78zm-10.422 5.941-.495-.868-1.493.851 1.478.877zm3.193 1.894.993-.122-.06-.487-.422-.25zm.001.006-.992.123.06.487.422.25zm8.234 4.883-.51.861 1.039.616.412-1.136zm61.118 24.041h-1v1.756l1.511-.896zm4.833-2.866.51.86.49-.291v-.569zm-4.833-9.2-.51-.86-.49.291v.569zm4.833-2.866h1v-1.756l-1.511.896zM193.32 37.623c-7.583 0-14.989.994-21.414 2.751-6.41 1.753-11.912 4.285-15.63 7.408l1.286 1.532c3.416-2.87 8.615-5.3 14.872-7.01 6.242-1.708 13.47-2.681 20.886-2.681zm36.888 10.173c-3.597-3.154-9.067-5.688-15.465-7.436-6.415-1.753-13.842-2.737-21.423-2.737v2c7.417 0 14.666.964 20.896 2.666 6.248 1.708 11.394 4.136 14.673 7.01zm2.163.48c-.832.05-1.643-.16-2.283-.57l-1.08 1.684c1.016.651 2.252.957 3.484.882zm2.145-.83c-.554.474-1.313.78-2.145.83l.121 1.996c1.232-.075 2.414-.528 3.324-1.306zm.901-1.661c-.049.596-.351 1.19-.901 1.662l1.3 1.52c.912-.781 1.497-1.847 1.594-3.016zm-.604-1.724c.454.518.653 1.13.604 1.724l1.993.166c.098-1.172-.306-2.311-1.093-3.209zm-41.536-11.79c6.763 0 14.673.783 22.156 2.672 7.495 1.891 14.483 4.872 19.476 9.213l1.312-1.509c-5.321-4.628-12.645-7.712-20.298-9.644-7.667-1.934-15.743-2.732-22.646-2.732zm-41.723 11.89c5.037-4.327 12.049-7.309 19.556-9.205 7.494-1.893 15.404-2.685 22.167-2.685v-2c-6.904 0-14.981.807-22.657 2.746-7.664 1.936-15.006 5.02-20.369 9.626zm-.504 1.624c-.049-.594.15-1.206.604-1.724l-1.503-1.319c-.787.898-1.191 2.037-1.094 3.209zm.902 1.662c-.551-.471-.852-1.066-.902-1.662l-1.993.166c.097 1.169.682 2.235 1.595 3.015zm2.145.829c-.832-.05-1.592-.356-2.145-.83l-1.3 1.52c.909.778 2.091 1.231 3.323 1.306zm2.282-.57c-.639.41-1.451.62-2.282.57l-.122 1.996c1.232.075 2.468-.23 3.484-.882zm92.082 26.374c-12.345-19.307-30.911-29.105-55.141-29.105v2c23.595 0 41.503 9.49 53.456 28.182zm22.215-13.767L247.123 73.75l.991 1.737 23.553-13.437zm59.826 33.565-58.835-33.565-.991 1.737 58.835 33.565zm-19.686 13.414 19.7-11.686-1.02-1.72-19.701 11.686zm.49 19.001v-19.861h-2v19.861zm-12.591 8.038 12.101-7.178-1.021-1.72-12.101 7.178zm.489 18.011v-18.871h-2v18.871zm5.542-1h-6.542v2h6.542zm1 16.224v-15.224h-2v15.224zm-8.269 1h7.269v-2h-7.269zm-1-9.73v8.73h2v-8.73zm-4.815 1h5.815v-2h-5.815zm1 7.73v-8.73h-2v8.73zm-8.268 1h7.268v-2h-7.268zm-1-16.224v15.224h2v-15.224zm7.542-1h-6.542v2h6.542zm-1-13.559v14.559h2v-14.559zm-18.227 12.568 19.737-11.708-1.021-1.72-19.736 11.707zm-37.078-21.389 36.058 21.389 1.02-1.721-36.058-21.389zm-2.454 1.512a23 23 0 0 0 3.437-1.492l-.946-1.762c-.99.532-2.039.988-3.135 1.36zm-8.234 1.268a24.3 24.3 0 0 0 8.234-1.268l-.644-1.894a22.3 22.3 0 0 1-7.553 1.162zm-6.71-.681c2.205.441 4.46.67 6.724.681l.009-2a33 33 0 0 1-6.341-.642zm-29.698-21.046c1.821 4.535 6.153 9.158 11.498 12.937 5.365 3.794 11.874 6.827 18.197 8.108l.398-1.96c-6.011-1.218-12.266-4.122-17.44-7.781-5.195-3.673-9.179-8.02-10.797-12.049zm-.284-1.878a4.2 4.2 0 0 0 .282 1.872l1.861-.733a2.2 2.2 0 0 1-.149-.981zm.571-1.81a4.3 4.3 0 0 0-.571 1.81l1.994.158c.026-.328.128-.656.307-.965zm1.293-1.439c-.528.394-.97.881-1.293 1.439l1.73 1.003c.179-.31.435-.597.759-.839zm1.779-.875a5.5 5.5 0 0 0-1.779.875l1.196 1.603a3.5 3.5 0 0 1 1.137-.556zm2.002-.222a6 6 0 0 0-2.002.222l.554 1.922a4 4 0 0 1 1.332-.147zm1.955.453a5.9 5.9 0 0 0-1.955-.453l-.116 1.997c.453.026.892.128 1.29.297zm1.641 1.084a5.3 5.3 0 0 0-1.641-1.084l-.781 1.841c.398.169.744.4 1.022.672zm1.067 1.595a4.6 4.6 0 0 0-1.067-1.595l-1.4 1.429c.277.272.48.579.606.899zm22.046 15.009c-4.995-1.014-10.003-3.428-14.038-6.295-4.067-2.89-6.995-6.132-8.007-8.713l-1.862.731c1.222 3.117 4.525 6.638 8.71 9.612 4.217 2.996 9.48 5.545 14.799 6.625zm6.583.417a13.95 13.95 0 0 1-6.488-.393l-.587 1.912c2.381.732 4.948.887 7.422.451zm5.101-2.056c-1.472 1.015-3.219 1.725-5.101 2.056l.347 1.97c2.151-.379 4.17-1.193 5.889-2.38zm-.432-10.735v11.558h2v-11.558zm-.898 2.69a20 20 0 0 0 2.565-1.945l-1.335-1.489q-1.05.941-2.31 1.751zm-27.482-5.259c3.776 2.336 8.305 5.143 13.008 6.626 4.735 1.493 9.779 1.685 14.479-1.37l-1.09-1.677c-4.028 2.618-8.395 2.525-12.787 1.14-4.424-1.395-8.739-4.058-12.558-6.42zm-.1-.062.1.062 1.052-1.701-.1-.062zm-15.608-5.571c1.425-.817 3.309-.729 5.973.308 2.651 1.032 5.819 2.902 9.635 5.263l1.052-1.701c-3.79-2.345-7.112-4.316-9.961-5.425-2.837-1.105-5.466-1.458-7.694-.18zm-3.674 4.041c.768-1.599 2.044-3.009 3.711-4.063l-1.069-1.69c-1.956 1.236-3.5 2.921-4.445 4.887zm-.696 5.022a8.15 8.15 0 0 1 .696-5.022l-1.803-.866a10.15 10.15 0 0 0-.86 6.246zm25.146 23.134c-17.559-6.437-24.338-16.241-25.136-23.071l-1.987.232c.921 7.873 8.495 18.14 26.435 24.716zm2.635 2.097c-.591-.966-1.533-1.696-2.637-2.098l-.684 1.879c.724.264 1.284.722 1.614 1.262zm.516 3.21a4.22 4.22 0 0 0-.516-3.21l-1.707 1.043c.326.534.417 1.129.28 1.694zm-1.914 2.698c.955-.658 1.647-1.604 1.914-2.698l-1.943-.473c-.139.569-.514 1.116-1.106 1.525zm-3.307.991c1.186.009 2.355-.334 3.307-.991l-1.135-1.646c-.595.41-1.357.643-2.158.637zm-1.842-.355a6 6 0 0 0 1.811.355l.076-1.999a4 4 0 0 1-1.198-.234zm-31.506-30.789c1.086 9.91 10.051 22.802 31.502 30.787l.698-1.874c-21.01-7.821-29.235-20.219-30.212-29.131zm1.659-10.036c-1.606 3.16-2.182 6.647-1.653 10.079l1.976-.304c-.462-3.008.038-6.071 1.46-8.869zm7.409-7.836c-3.236 1.975-5.804 4.678-7.409 7.836l1.783.906c1.423-2.8 3.721-5.236 6.668-7.034zm26.892 5.41c-3.803-2.297-8.196-4.958-12.751-6.395-4.585-1.447-9.448-1.691-14.115.97l.991 1.738c4.025-2.296 8.266-2.144 12.522-.8 4.287 1.352 8.474 3.876 12.319 6.199zm.533.322-.533-.322-1.034 1.712.533.322zm15.274 5.418c-1.303.836-3.05.796-5.652-.214-2.589-1.006-5.733-2.857-9.622-5.204l-1.033 1.713c3.847 2.321 7.148 4.274 9.931 5.355 2.771 1.076 5.321 1.404 7.456.034zm2.183-1.956a9.6 9.6 0 0 1-2.195 1.964l1.104 1.668a11.7 11.7 0 0 0 2.645-2.373zm-10.365-4.817 10.631 6.306 1.021-1.72-10.631-6.306zm-.054-.035-.015-.01 1.159-1.63a2 2 0 0 0-.14-.09zm-2.108-2.05c.18.245.485.621.841.995.346.362.796.781 1.267 1.055l1.004-1.73c-.223-.13-.518-.386-.824-.706a9 9 0 0 1-.677-.799zm-.906-1.009.965 1.082 1.493-1.33-.965-1.083zm.785.334h.01l-.097-1.998h-.009zm-.535-1.872-.008.005.991 1.737.008-.005zm-23.581-7.388c8.572-1.408 16.603 1.602 23.341 8.933l1.472-1.353c-7.127-7.756-15.808-11.085-25.137-9.554zm-13.369 5.828c3.785-2.895 8.398-4.909 13.389-5.832l-.364-1.966c-5.282.976-10.19 3.112-14.24 6.21zm-8.21 10.644c1.604-4.078 4.426-7.75 8.21-10.644l-1.215-1.589c-4.05 3.099-7.109 7.058-8.856 11.501zm.07-.329v-.037h-2v.037zm15.926 40.223c-14.278-14.991-19.462-28.334-15.969-39.935l-1.915-.576c-3.813 12.66 2.005 26.739 16.435 41.891zm1.205 3.485c.15-1.28-.303-2.531-1.203-3.482l-1.453 1.375c.525.554.745 1.228.669 1.875zm-1.954 3.168c1.078-.762 1.805-1.892 1.954-3.168l-1.987-.232c-.076.651-.454 1.295-1.122 1.767zm-3.297 1.029c1.197.015 2.378-.347 3.316-1.043l-1.192-1.605c-.563.417-1.31.658-2.099.648zm-2.259-.409a5.9 5.9 0 0 0 2.291.409l-.04-2a3.9 3.9 0 0 1-1.516-.269zm-1.893-1.263c.521.549 1.17.977 1.893 1.263l.735-1.86a3.3 3.3 0 0 1-1.176-.779zM157.25 99.984c-4.45 14.995 1.987 31.274 18.286 48.286l1.444-1.384c-16.104-16.807-21.959-32.362-17.813-46.333zm11.424-15.205c-5.287 4.077-9.229 9.299-11.403 15.14l1.875.698c2.032-5.463 5.735-10.387 10.749-14.255zm18.669-8.102c-6.939 1.233-13.383 4.025-18.669 8.102l1.221 1.583c5.015-3.868 11.157-6.535 17.798-7.716zm33.939 12.718c-12.441-13.74-26.544-13.888-33.92-12.721l.312 1.975c6.956-1.1 20.283-.99 32.126 12.089zm4.332-3.374-5.568 3.177.991 1.737 5.568-3.177zm-32.337-16.99c14.687 0 26.678 9.004 31.962 18.35l1.741-.983c-5.594-9.896-18.209-19.367-33.703-19.367zm-42.664 46.787c0-5.453.781-17.197 6.509-27.545 2.856-5.159 6.934-9.958 12.752-13.47 5.816-3.512 13.427-5.772 23.403-5.772v-2c-10.288 0-18.267 2.334-24.437 6.06-6.168 3.724-10.473 8.804-13.467 14.213-5.972 10.79-6.76 22.938-6.76 28.514zm-1.609 3.359c1.006-.861 1.609-2.064 1.609-3.359h-2c0 .654-.303 1.321-.909 1.839zm-3.688 1.317c1.358 0 2.687-.461 3.688-1.317l-1.3-1.52c-.61.522-1.468.837-2.388.837zm-3.689-1.317c1.001.856 2.33 1.317 3.689 1.317v-2c-.921 0-1.779-.315-2.389-.837zm-1.609-3.359c0 1.295.603 2.498 1.609 3.359l1.3-1.52c-.606-.518-.909-1.185-.909-1.839zm53.259-56.14c-19.53 0-32.896 7.24-41.355 17.957-8.429 10.679-11.904 24.704-11.904 38.183h2c0-13.173 3.401-26.716 11.474-36.944 8.044-10.191 20.808-17.195 39.785-17.195zm26.642 8.05c-7.726-4.932-17.005-7.734-26.61-8.049l-.065 1.999c9.265.304 18.192 3.007 25.599 7.737zm14.207 14.58c-3.328-5.738-8.189-10.737-14.207-14.58l-1.076 1.687c5.768 3.682 10.396 8.454 13.553 13.897zm5.832-4.47-7.193 4.104.991 1.737 7.193-4.104zm-46.724-23.511c20.657 0 35.85 8.156 46.373 24.911l1.693-1.063c-10.907-17.37-26.759-25.848-48.066-25.848zm-47.222 26.845c5.168-9.04 11.623-15.737 19.433-20.18 7.811-4.444 17.035-6.665 27.789-6.665v-2c-11.035 0-20.613 2.281-28.778 6.926-8.167 4.646-14.863 11.624-20.18 20.926zm-1.3 1.451a4.8 4.8 0 0 0 1.298-1.449l-1.733-.997c-.179.311-.435.6-.761.843zm-1.791.878a5.5 5.5 0 0 0 1.791-.878l-1.196-1.603a3.5 3.5 0 0 1-1.143.558zm-2.015.215c.68.043 1.364-.03 2.015-.215l-.548-1.923a4 4 0 0 1-1.34.142zm-1.962-.469a5.9 5.9 0 0 0 1.962.47l.127-1.997a3.9 3.9 0 0 1-1.293-.307zm-2.669-2.688c.462 1.204 1.441 2.154 2.668 2.688l.798-1.834c-.798-.347-1.352-.928-1.599-1.57zm.314-3.661a4.2 4.2 0 0 0-.314 3.661l1.867-.717a2.2 2.2 0 0 1 .171-1.931zm56.731-31.923c-25.393 0-44.601 10.761-56.737 31.932l1.736.994c11.759-20.514 30.284-30.926 55.001-30.926zm45.505 78.679 31.864 18.902 1.02-1.72-31.864-18.902zm-.605-1.022q.093.201.146.408l1.938-.492a4.3 4.3 0 0 0-.273-.763zm-.095-11.996v11.573h2v-11.573zm33.558 18.15-32.047-19.01-1.021 1.72 32.047 19.01zm18.742-11.724-19.763 11.724 1.021 1.72 19.763-11.723zm1.511 12.926v-12.065h-2v12.065zm-20.227 12.568 19.737-11.708-1.021-1.72-19.736 11.708zm-35.132-40.064 34.085 20.219 1.021-1.72-34.085-20.219zm35.106 20.219 16.835-9.987-1.02-1.72-16.836 9.987zm16.837-11.706L269.668 99.78l-1.023 1.718 18.851 11.225zm-18.562-9.768 4.031-5.404-1.603-1.196-4.031 5.404zm2.718-5.143 21.386 12.734 1.023-1.718-21.386-12.734zm22.408 12.735 22.112-13.116-1.02-1.72-22.112 13.116zm22.097-14.845-45.514-25.966-.991 1.737 45.514 25.966zm-46.505-25.966-35.092 20.02.991 1.738 35.092-20.02zm-35.544 21.21.002.006v-.002l1.893-.643-.001-.005v.002zm-7.007 3.066-2.962 1.69.991 1.737 2.961-1.69zm-2.977 3.418 3.193 1.894 1.021-1.72-3.194-1.894zm2.711 1.157.001.006 1.985-.245-.001-.006zm10.168 5.107.001-.004-1.881-.68-.001.003zm60.688 24.56 4.832-2.866-1.021-1.72-4.832 2.866zm-1.511-12.926v12.066h2V113.61zm5.322-3.726-4.832 2.866 1.021 1.72 4.832-2.866zm1.511 12.926v-12.066h-2v12.066zm-68.452-34.768-7.46 4.252.99 1.737 7.461-4.251zm-7.243 9.57 8.234 4.884 1.02-1.721-8.234-4.883z"/></g></g><defs><filter id="a" width="201.012" height="144.295" x="132.994" y="31.271" color-interpolation-filters="sRGB" filterUnits="userSpaceOnUse"><feFlood flood-opacity="0" result="BackgroundImageFix"/><feColorMatrix in="SourceAlpha" result="hardAlpha" values="0 0 0 0 0 0 0 0 0 0 0 0 0 0 0 0 0 0 127 0"/><feOffset dy="4"/><feGaussianBlur stdDeviation="2"/><feComposite in2="hardAlpha" operator="out"/><feColorMatrix values="0 0 0 0 0 0 0 0 0 0 0 0 0 0 0 0 0 0 0.25 0"/><feBlend in2="BackgroundImageFix" result="effect1_dropShadow_3205_41"/><feBlend in="SourceGraphic" in2="effect1_dropShadow_3205_41" result="shape"/></filter></defs></svg>