<svg width="128" height="128" viewBox="0 0 128 128" fill="none" xmlns="http://www.w3.org/2000/svg">
<g clip-path="url(#clip0_3205_16)">
<g filter="url(#filter0_d_3205_16)">
<path d="M16.0491 32.1475C20.516 28.3958 29.4498 25.933 38.8411 25.933C48.2324 25.933 57.2201 28.3727 61.5256 32.1475C62.0438 32.4799 62.6848 32.6413 63.3309 32.602C63.977 32.5628 64.5849 32.3254 65.0429 31.9337C65.5009 31.5419 65.7784 31.022 65.8243 30.4693C65.8702 29.9167 65.6815 29.3684 65.2929 28.9251C58.8347 23.3091 47.3713 21.3296 38.8142 21.3296C30.2571 21.3296 18.7938 23.3321 12.2818 28.9251C11.8932 29.3684 11.7045 29.9167 11.7504 30.4693C11.7963 31.022 12.0737 31.5419 12.5318 31.9337C12.9898 32.3254 13.5977 32.5628 14.2438 32.602C14.8899 32.6413 15.5309 32.4799 16.0491 32.1475Z" fill="black"/>
<path fill-rule="evenodd" clip-rule="evenodd" d="M38.8411 30.5363C53.8143 30.5363 65.2332 36.5748 72.8403 48.4716L87.588 40.0581L124.427 61.0743L112.091 68.3915V80.8272L104.514 85.3217V97.1375H108.611V106.67H104.059V101.204H100.418V106.67H95.8667V97.1375H99.9629V88.0216L87.6049 95.3522L65.0273 81.9595C64.3763 82.3091 63.6878 82.6081 62.9699 82.8519C61.3984 83.3856 59.7178 83.6444 58.0274 83.6129C56.6501 83.6061 55.2782 83.4672 53.9372 83.1986C46.2143 81.6335 37.9531 75.7642 35.8004 70.4013C35.6873 70.1142 35.6415 69.8108 35.6655 69.5085C35.6895 69.2062 35.7828 68.9109 35.9403 68.6394C36.0977 68.368 36.3161 68.1257 36.583 67.9265C36.8498 67.7272 37.16 67.5749 37.4957 67.4782C37.8314 67.3815 38.1861 67.3422 38.5395 67.3628C38.8929 67.3833 39.2382 67.4632 39.5555 67.5978C39.8729 67.7325 40.1561 67.9193 40.389 68.1475C40.622 68.3758 40.8001 68.6411 40.9132 68.9282C42.3124 72.4958 48.7168 77.3984 55.175 78.7104C56.5708 79.1389 58.0777 79.2303 59.5302 78.9745C60.7928 78.7522 61.9719 78.275 62.9709 77.5857V70.3489C62.5069 70.7646 61.998 71.1513 61.4448 71.5061C55.9793 75.0581 49.6602 71.1492 44.9043 68.2073L44.8419 68.1687C40.079 65.2225 36.7153 63.3582 34.428 64.6701C33.2938 65.3871 32.4108 66.3561 31.8748 67.4719C31.3387 68.5877 31.1701 69.8078 31.3873 70.9997C31.9255 75.6031 36.4193 81.8867 47.5328 85.9606C48.1052 86.1691 48.5754 86.5409 48.8635 87.0126C49.1516 87.4842 49.2396 88.0267 49.1128 88.5477C48.9859 89.0686 48.6518 89.5359 48.1675 89.87C47.6832 90.204 47.0786 90.3842 46.4564 90.3798C46.1321 90.3676 45.813 90.3052 45.5146 90.1957C32.2215 85.2471 26.8397 77.3294 26.1938 71.4371C25.8836 69.4207 26.2205 67.3701 27.1686 65.505C28.1166 63.6399 29.6401 62.0305 31.5757 60.8494C37.0187 57.7456 42.9755 61.3449 47.7641 64.2383L48.0979 64.44C52.9416 67.3631 56.1706 69.2044 58.3234 67.8234C58.9437 67.4126 59.4421 66.9545 59.8383 66.4655L53.1816 62.5169C53.1698 62.5085 53.1568 62.5002 53.1426 62.4919C52.7082 62.2395 52.2082 61.6448 52.0126 61.379L51.4084 60.7015L51.4026 60.7018L51.408 60.6987C47.0672 55.9756 41.8352 53.9908 36.231 54.911C33.0147 55.5057 30.0341 56.8048 27.5812 58.6809C25.1283 60.5571 23.2872 62.9461 22.2382 65.6138V65.6368C19.9509 73.2324 23.3953 81.8176 32.3829 91.2545C32.8291 91.7257 33.0397 92.3285 32.9692 92.9319C32.8987 93.5353 32.5526 94.0905 32.0062 94.4768C31.5364 94.8256 30.9329 95.014 30.3109 95.0062C29.8999 95.0144 29.4921 94.9418 29.119 94.7942C28.7458 94.6466 28.4171 94.4278 28.1582 94.1546C18.0135 83.5669 14.1654 73.6006 16.8564 64.532C18.1732 60.9927 20.5668 57.8165 23.7917 55.329C27.0166 52.8416 30.9568 51.1325 35.2084 50.3767C39.6956 49.6668 48.283 49.7481 55.8858 58.1442L59.3724 56.155C55.967 50.1305 48.2632 44.3464 38.8142 44.3464C13.4389 44.3464 11.4745 67.3631 11.4745 74.2681C11.4745 74.8786 11.191 75.464 10.6864 75.8957C10.1817 76.3273 9.49729 76.5698 8.78362 76.5698C8.06994 76.5698 7.3855 76.3273 6.88085 75.8957C6.37621 75.464 6.0927 74.8786 6.0927 74.2681C6.0927 57.581 14.7036 39.743 38.8142 39.743C44.7219 39.9369 50.4216 41.6603 55.1592 44.6852C58.8491 47.0411 61.8201 50.1001 63.8501 53.6005L68.3538 51.0312C61.6447 40.3478 51.9254 35.1397 38.7873 35.1397C25.1444 35.1397 15.2418 40.7788 8.67598 52.2641C8.51868 52.5375 8.29948 52.7814 8.03112 52.9818C7.76275 53.1821 7.45055 53.3349 7.11262 53.4312C6.77469 53.5276 6.41776 53.5656 6.06253 53.543C5.7073 53.5205 5.36084 53.4378 5.04324 53.2999C4.40947 53.0239 3.92916 52.5446 3.7073 51.9667C3.48544 51.3888 3.54007 50.7592 3.85924 50.2156C11.34 37.1651 23.1531 30.5363 38.8411 30.5363ZM87.6049 90.4715L67.6535 78.6364C67.6216 78.511 67.5777 78.3885 67.5223 78.27V71.0236L87.5883 82.9266L99.9629 75.5861V83.141L87.6049 90.4715ZM66.2462 65.3858L87.5883 78.0456L98.1299 71.7924L86.3261 64.764L88.8503 61.3804L102.241 69.3538L116.086 61.1408L87.588 44.8826L65.6148 57.4181C65.6151 57.4189 65.6154 57.4197 65.6156 57.4205L60.9443 60.0829C60.9443 60.083 60.9443 60.0828 60.9443 60.0829L59.0898 61.1407L61.0892 62.3267L61.0896 62.3305L66.2454 65.388L66.2462 65.3858ZM107.54 78.6462L104.514 80.441V72.886L107.54 71.0913V78.6462Z" fill="black"/>
<mask id="mask0_3205_16" style="mask-type:luminance" maskUnits="userSpaceOnUse" x="3" y="21" width="122" height="86">
<path d="M16.0491 32.1475C20.516 28.3958 29.4498 25.933 38.8411 25.933C48.2324 25.933 57.2201 28.3727 61.5256 32.1475C62.0438 32.4799 62.6848 32.6413 63.3309 32.602C63.977 32.5628 64.5849 32.3254 65.0429 31.9337C65.5009 31.5419 65.7784 31.022 65.8243 30.4693C65.8702 29.9167 65.6815 29.3684 65.2929 28.9251C58.8347 23.3091 47.3713 21.3296 38.8142 21.3296C30.2571 21.3296 18.7938 23.3321 12.2818 28.9251C11.8932 29.3684 11.7045 29.9167 11.7504 30.4693C11.7963 31.022 12.0737 31.5419 12.5318 31.9337C12.9898 32.3254 13.5977 32.5628 14.2438 32.602C14.8899 32.6413 15.5309 32.4799 16.0491 32.1475Z" fill="white"/>
<path fill-rule="evenodd" clip-rule="evenodd" d="M38.8411 30.5363C53.8143 30.5363 65.2332 36.5748 72.8403 48.4716L87.588 40.0581L124.427 61.0743L112.091 68.3915V80.8272L104.514 85.3217V97.1375H108.611V106.67H104.059V101.204H100.418V106.67H95.8667V97.1375H99.9629V88.0216L87.6049 95.3522L65.0273 81.9595C64.3763 82.3091 63.6878 82.6081 62.9699 82.8519C61.3984 83.3856 59.7178 83.6444 58.0274 83.6129C56.6501 83.6061 55.2782 83.4672 53.9372 83.1986C46.2143 81.6335 37.9531 75.7642 35.8004 70.4013C35.6873 70.1142 35.6415 69.8108 35.6655 69.5085C35.6895 69.2062 35.7828 68.9109 35.9403 68.6394C36.0977 68.368 36.3161 68.1257 36.583 67.9265C36.8498 67.7272 37.16 67.5749 37.4957 67.4782C37.8314 67.3815 38.1861 67.3422 38.5395 67.3628C38.8929 67.3833 39.2382 67.4632 39.5555 67.5978C39.8729 67.7325 40.1561 67.9193 40.389 68.1475C40.622 68.3758 40.8001 68.6411 40.9132 68.9282C42.3124 72.4958 48.7168 77.3984 55.175 78.7104C56.5708 79.1389 58.0777 79.2303 59.5302 78.9745C60.7928 78.7522 61.9719 78.275 62.9709 77.5857V70.3489C62.5069 70.7646 61.998 71.1513 61.4448 71.5061C55.9793 75.0581 49.6602 71.1492 44.9043 68.2073L44.8419 68.1687C40.079 65.2225 36.7153 63.3582 34.428 64.6701C33.2938 65.3871 32.4108 66.3561 31.8748 67.4719C31.3387 68.5877 31.1701 69.8078 31.3873 70.9997C31.9255 75.6031 36.4193 81.8867 47.5328 85.9606C48.1052 86.1691 48.5754 86.5409 48.8635 87.0126C49.1516 87.4842 49.2396 88.0267 49.1128 88.5477C48.9859 89.0686 48.6518 89.5359 48.1675 89.87C47.6832 90.204 47.0786 90.3842 46.4564 90.3798C46.1321 90.3676 45.813 90.3052 45.5146 90.1957C32.2215 85.2471 26.8397 77.3294 26.1938 71.4371C25.8836 69.4207 26.2205 67.3701 27.1686 65.505C28.1166 63.6399 29.6401 62.0305 31.5757 60.8494C37.0187 57.7456 42.9755 61.3449 47.7641 64.2383L48.0979 64.44C52.9416 67.3631 56.1706 69.2044 58.3234 67.8234C58.9437 67.4126 59.4421 66.9545 59.8383 66.4655L53.1816 62.5169C53.1698 62.5085 53.1568 62.5002 53.1426 62.4919C52.7082 62.2395 52.2082 61.6448 52.0126 61.379L51.4084 60.7015L51.4026 60.7018L51.408 60.6987C47.0672 55.9756 41.8352 53.9908 36.231 54.911C33.0147 55.5057 30.0341 56.8048 27.5812 58.6809C25.1283 60.5571 23.2872 62.9461 22.2382 65.6138V65.6368C19.9509 73.2324 23.3953 81.8176 32.3829 91.2545C32.8291 91.7257 33.0397 92.3285 32.9692 92.9319C32.8987 93.5353 32.5526 94.0905 32.0062 94.4768C31.5364 94.8256 30.9329 95.014 30.3109 95.0062C29.8999 95.0144 29.4921 94.9418 29.119 94.7942C28.7458 94.6466 28.4171 94.4278 28.1582 94.1546C18.0135 83.5669 14.1654 73.6006 16.8564 64.532C18.1732 60.9927 20.5668 57.8165 23.7917 55.329C27.0166 52.8416 30.9568 51.1325 35.2084 50.3767C39.6956 49.6668 48.283 49.7481 55.8858 58.1442L59.3724 56.155C55.967 50.1305 48.2632 44.3464 38.8142 44.3464C13.4389 44.3464 11.4745 67.3631 11.4745 74.2681C11.4745 74.8786 11.191 75.464 10.6864 75.8957C10.1817 76.3273 9.49729 76.5698 8.78362 76.5698C8.06994 76.5698 7.3855 76.3273 6.88085 75.8957C6.37621 75.464 6.0927 74.8786 6.0927 74.2681C6.0927 57.581 14.7036 39.743 38.8142 39.743C44.7219 39.9369 50.4216 41.6603 55.1592 44.6852C58.8491 47.0411 61.8201 50.1001 63.8501 53.6005L68.3538 51.0312C61.6447 40.3478 51.9254 35.1397 38.7873 35.1397C25.1444 35.1397 15.2418 40.7788 8.67598 52.2641C8.51868 52.5375 8.29948 52.7814 8.03112 52.9818C7.76275 53.1821 7.45055 53.3349 7.11262 53.4312C6.77469 53.5276 6.41776 53.5656 6.06253 53.543C5.7073 53.5205 5.36084 53.4378 5.04324 53.2999C4.40947 53.0239 3.92916 52.5446 3.7073 51.9667C3.48544 51.3888 3.54007 50.7592 3.85924 50.2156C11.34 37.1651 23.1531 30.5363 38.8411 30.5363ZM87.6049 90.4715L67.6535 78.6364C67.6216 78.511 67.5777 78.3885 67.5223 78.27V71.0236L87.5883 82.9266L99.9629 75.5861V83.141L87.6049 90.4715ZM66.2462 65.3858L87.5883 78.0456L98.1299 71.7924L86.3261 64.764L88.8503 61.3804L102.241 69.3538L116.086 61.1408L87.588 44.8826L65.6148 57.4181C65.6151 57.4189 65.6154 57.4197 65.6156 57.4205L60.9443 60.0829C60.9443 60.083 60.9443 60.0828 60.9443 60.0829L59.0898 61.1407L61.0892 62.3267L61.0896 62.3305L66.2454 65.388L66.2462 65.3858ZM107.54 78.6462L104.514 80.441V72.886L107.54 71.0913V78.6462Z" fill="white"/>
</mask>
<g mask="url(#mask0_3205_16)">
<path d="M16.0491 32.1475L16.589 32.9892L16.6431 32.9545L16.6922 32.9132L16.0491 32.1475ZM61.5256 32.1475L60.8663 32.8994L60.9226 32.9488L60.9856 32.9892L61.5256 32.1475ZM65.2929 28.9251L66.0447 28.2659L66.0001 28.215L65.9491 28.1706L65.2929 28.9251ZM12.2818 28.9251L11.6302 28.1665L11.5766 28.2126L11.5299 28.2659L12.2818 28.9251ZM72.8403 48.4716L71.9978 49.0103L72.51 49.8113L73.3359 49.3402L72.8403 48.4716ZM87.588 40.0581L88.0835 39.1895L87.588 38.9068L87.0925 39.1895L87.588 40.0581ZM124.427 61.0743L124.937 61.9344L126.415 61.0575L124.922 60.2057L124.427 61.0743ZM112.091 68.3915L111.581 67.5315L111.091 67.822V68.3915H112.091ZM112.091 80.8272L112.602 81.6873L113.091 81.3967V80.8272H112.091ZM104.514 85.3217L104.004 84.4617L103.514 84.7522V85.3217H104.514ZM104.514 97.1375H103.514V98.1375H104.514V97.1375ZM108.611 97.1375H109.611V96.1375H108.611V97.1375ZM108.611 106.67V107.67H109.611V106.67H108.611ZM104.059 106.67H103.059V107.67H104.059V106.67ZM104.059 101.204H105.059V100.204H104.059V101.204ZM100.418 101.204V100.204H99.418V101.204H100.418ZM100.418 106.67V107.67H101.418V106.67H100.418ZM95.8667 106.67H94.8667V107.67H95.8667V106.67ZM95.8667 97.1375V96.1375H94.8667V97.1375H95.8667ZM99.9629 97.1375V98.1375H100.963V97.1375H99.9629ZM99.9629 88.0216H100.963V86.2657L99.4527 87.1616L99.9629 88.0216ZM87.6049 95.3522L87.0947 96.2123L87.6049 96.5149L88.1151 96.2123L87.6049 95.3522ZM65.0273 81.9595L65.5375 81.0995L65.0518 80.8113L64.5542 81.0785L65.0273 81.9595ZM58.0274 83.6129L58.046 82.613L58.0323 82.6129L58.0274 83.6129ZM53.9372 83.1986L53.7386 84.1787L53.7408 84.1791L53.9372 83.1986ZM35.8004 70.4013L34.8699 70.7677L34.8724 70.7738L35.8004 70.4013ZM40.9132 68.9282L41.8441 68.5631L41.8436 68.5618L40.9132 68.9282ZM55.175 78.7104L55.4685 77.7544L55.4219 77.7401L55.3741 77.7304L55.175 78.7104ZM62.9709 77.5857L63.5388 78.4088L63.9709 78.1106V77.5857H62.9709ZM62.9709 70.3489H63.9709V68.1102L62.3035 69.6041L62.9709 70.3489ZM61.4448 71.5061L60.9049 70.6644L60.8999 70.6676L61.4448 71.5061ZM34.428 64.6701L33.9305 63.8027L33.9119 63.8134L33.8937 63.8249L34.428 64.6701ZM31.3873 70.9997L32.3805 70.8836L32.3768 70.8519L32.3711 70.8205L31.3873 70.9997ZM47.5328 85.9606L47.1886 86.8995L47.1905 86.9002L47.5328 85.9606ZM46.4564 90.3798L46.4186 91.3791L46.434 91.3797L46.4495 91.3798L46.4564 90.3798ZM45.5146 90.1957L45.1657 91.1329L45.1702 91.1345L45.5146 90.1957ZM26.1938 71.4371L27.1879 71.3281L27.1855 71.3065L27.1822 71.285L26.1938 71.4371ZM31.5757 60.8494L31.0803 59.9807L31.0674 59.988L31.0548 59.9957L31.5757 60.8494ZM58.3234 67.8234L58.8633 68.6651L58.8694 68.6612L58.8755 68.6572L58.3234 67.8234ZM59.8383 66.4655L60.6152 67.0951L61.3439 66.1959L60.3485 65.6055L59.8383 66.4655ZM53.1816 62.5169L52.602 63.3318L52.6358 63.3558L52.6714 63.377L53.1816 62.5169ZM52.0126 61.379L52.8179 60.7862L52.7901 60.7485L52.7589 60.7135L52.0126 61.379ZM51.4084 60.7015L52.1548 60.036L51.8371 59.6798L51.3604 59.7027L51.4084 60.7015ZM51.4026 60.7018L50.907 59.8333L51.4506 61.7007L51.4026 60.7018ZM51.408 60.6987L51.9036 61.5672L52.9931 60.9456L52.1443 60.022L51.408 60.6987ZM36.231 54.911L36.0689 53.9243L36.059 53.9259L36.0491 53.9277L36.231 54.911ZM22.2382 65.6138L21.3076 65.2479L21.2382 65.4243V65.6138H22.2382ZM22.2382 65.6368L23.1957 65.9252L23.2382 65.7841V65.6368H22.2382ZM32.3829 91.2545L33.1092 90.567L33.1071 90.5648L32.3829 91.2545ZM32.0062 94.4768L31.4288 93.6603L31.4194 93.667L31.4101 93.6739L32.0062 94.4768ZM30.3109 95.0062L30.3235 94.0063L30.3073 94.0061L30.2911 94.0064L30.3109 95.0062ZM28.1582 94.1546L28.884 93.4667L28.8803 93.4627L28.1582 94.1546ZM16.8564 64.532L15.9191 64.1833L15.9073 64.2151L15.8977 64.2476L16.8564 64.532ZM35.2084 50.3767L35.0521 49.389L35.0428 49.3905L35.0334 49.3922L35.2084 50.3767ZM55.8858 58.1442L55.1445 58.8154L55.6836 59.4108L56.3813 59.0127L55.8858 58.1442ZM59.3724 56.155L59.8679 57.0236L60.7331 56.5301L60.2429 55.6629L59.3724 56.155ZM38.8142 39.743L38.847 38.7436L38.8306 38.743H38.8142V39.743ZM63.8501 53.6005L62.985 54.1022L63.4831 54.9612L64.3456 54.4691L63.8501 53.6005ZM68.3538 51.0312L68.8493 51.8998L69.7554 51.3828L69.2006 50.4994L68.3538 51.0312ZM8.67601 52.2641L9.54275 52.7629L9.54416 52.7604L8.67601 52.2641ZM3.85927 50.2156L4.72165 50.722L4.72684 50.7129L3.85927 50.2156ZM67.6535 78.6364L66.6842 78.8824L66.7863 79.2847L67.1433 79.4965L67.6535 78.6364ZM87.6049 90.4715L87.0947 91.3315L87.6049 91.6341L88.1151 91.3315L87.6049 90.4715ZM67.5223 78.27H66.5223V78.4922L66.6164 78.6935L67.5223 78.27ZM67.5223 71.0236L68.0325 70.1636L66.5223 69.2677V71.0236H67.5223ZM87.5883 82.9266L87.0781 83.7866L87.5883 84.0893L88.0985 83.7866L87.5883 82.9266ZM99.9629 75.5861H100.963V73.8302L99.4527 74.726L99.9629 75.5861ZM99.9629 83.141L100.473 84.001L100.963 83.7105V83.141H99.9629ZM66.2462 65.3858L66.7564 64.5257L65.717 63.9092L65.3059 65.0455L66.2462 65.3858ZM87.5883 78.0456L87.0781 78.9057L87.5883 79.2083L88.0985 78.9057L87.5883 78.0456ZM98.1299 71.7924L98.6401 72.6525L100.087 71.794L98.6415 70.9332L98.1299 71.7924ZM86.3261 64.764L85.5246 64.1661L84.8611 65.0555L85.8145 65.6232L86.3261 64.764ZM88.8503 61.3804L89.3619 60.5212L88.5876 60.0602L88.0487 60.7825L88.8503 61.3804ZM102.241 69.3538L101.729 70.213L102.24 70.517L102.751 70.2138L102.241 69.3538ZM116.086 61.1408L116.597 62.0009L118.075 61.1239L116.582 60.2722L116.086 61.1408ZM87.588 44.8826L88.0835 44.014L87.588 43.7313L87.0925 44.014L87.588 44.8826ZM65.6148 57.4181L65.1193 56.5496L64.4027 56.9584L64.6679 57.7396L65.6148 57.4181ZM65.6156 57.4205L66.1108 58.2893L66.8279 57.8806L66.5625 57.099L65.6156 57.4205ZM59.0898 61.1407L58.5943 60.272L57.1011 61.1237L58.5796 62.0007L59.0898 61.1407ZM61.0892 62.3267L62.0816 62.2043L62.0216 61.7171L61.5993 61.4666L61.0892 62.3267ZM61.0896 62.3305L60.0972 62.4529L60.1572 62.9402L60.5796 63.1906L61.0896 62.3305ZM66.2454 65.388L65.7354 66.2481L66.7746 66.8644L67.1858 65.7282L66.2454 65.388ZM104.514 80.441H103.514V82.1968L105.025 81.301L104.514 80.441ZM107.54 78.6462L108.05 79.5063L108.54 79.2157V78.6462H107.54ZM104.514 72.886L104.004 72.026L103.514 72.3165V72.886H104.514ZM107.54 71.0913H108.54V69.3354L107.03 70.2312L107.54 71.0913ZM38.8411 24.933C34.0622 24.933 29.3918 25.5591 25.3347 26.6688C21.2919 27.7745 17.7906 29.3789 15.4059 31.3817L16.6922 32.9132C18.7745 31.1644 21.9735 29.6615 25.8623 28.5979C29.7366 27.5382 34.2288 26.933 38.8411 26.933V24.933ZM62.1848 31.3956C59.8732 29.3689 56.3883 27.7624 52.3541 26.6601C48.3027 25.553 43.6189 24.933 38.8411 24.933V26.933C43.4547 26.933 47.9603 27.5328 51.827 28.5893C55.7108 29.6506 58.8725 31.1514 60.8663 32.8994L62.1848 31.3956ZM63.2702 31.6039C62.8242 31.631 62.3956 31.5176 62.0655 31.3058L60.9856 32.9892C61.6919 33.4423 62.5453 33.6516 63.3916 33.6002L63.2702 31.6039ZM64.3929 31.1737C64.1127 31.4134 63.7163 31.5768 63.2702 31.6039L63.3916 33.6002C64.2377 33.5488 65.057 33.2375 65.6929 32.6936L64.3929 31.1737ZM64.8277 30.3865C64.8056 30.6525 64.6698 30.9368 64.3929 31.1737L65.6929 32.6936C66.332 32.147 66.7511 31.3914 66.8208 30.5521L64.8277 30.3865ZM64.541 29.5844C64.7634 29.8381 64.8496 30.1226 64.8277 30.3865L66.8208 30.5521C66.8907 29.7107 66.5997 28.8987 66.0447 28.2659L64.541 29.5844ZM38.8142 22.3296C43.0231 22.3296 47.9448 22.8172 52.596 23.991C57.2594 25.1678 61.572 27.0147 64.6367 29.6797L65.9491 28.1706C62.5555 25.2195 57.9073 23.2686 53.0853 22.0517C48.251 20.8318 43.1625 20.3296 38.8142 20.3296V22.3296ZM12.9334 29.6837C16.0268 27.0269 20.3556 25.1793 25.026 23.9995C29.6846 22.8227 34.6063 22.3296 38.8142 22.3296V20.3296C34.4651 20.3296 29.3766 20.8377 24.5362 22.0604C19.7077 23.2801 15.0488 25.2304 11.6302 28.1665L12.9334 29.6837ZM12.747 30.3865C12.725 30.1226 12.8113 29.8381 13.0337 29.5844L11.5299 28.2659C10.975 28.8987 10.6839 29.7107 10.7538 30.5521L12.747 30.3865ZM13.1818 31.1737C12.9048 30.9369 12.7691 30.6525 12.747 30.3865L10.7538 30.5521C10.8236 31.3914 11.2427 32.147 11.8818 32.6936L13.1818 31.1737ZM14.3045 31.6039C13.8584 31.5768 13.4619 31.4134 13.1818 31.1737L11.8818 32.6936C12.5176 33.2375 13.3369 33.5488 14.1831 33.6002L14.3045 31.6039ZM15.5091 31.3058C15.179 31.5176 14.7504 31.631 14.3045 31.6039L14.1831 33.6002C15.0294 33.6516 15.8828 33.4423 16.589 32.9892L15.5091 31.3058ZM73.6828 47.9329C65.8796 35.7294 54.1319 29.5363 38.8411 29.5363V31.5363C53.4967 31.5363 64.5868 37.4202 71.9978 49.0103L73.6828 47.9329ZM87.0925 39.1895L72.3448 47.603L73.3359 49.3402L88.0835 40.9267L87.0925 39.1895ZM124.922 60.2057L88.0835 39.1895L87.0925 40.9267L123.931 61.9429L124.922 60.2057ZM112.602 69.2516L124.937 61.9344L123.917 60.2142L111.581 67.5315L112.602 69.2516ZM113.091 80.8272V68.3915H111.091V80.8272H113.091ZM105.025 86.1818L112.602 81.6873L111.581 79.9672L104.004 84.4617L105.025 86.1818ZM105.514 97.1375V85.3217H103.514V97.1375H105.514ZM108.611 96.1375H104.514V98.1375H108.611V96.1375ZM109.611 106.67V97.1375H107.611V106.67H109.611ZM104.059 107.67H108.611V105.67H104.059V107.67ZM103.059 101.204V106.67H105.059V101.204H103.059ZM100.418 102.204H104.059V100.204H100.418V102.204ZM101.418 106.67V101.204H99.418V106.67H101.418ZM95.8667 107.67H100.418V105.67H95.8667V107.67ZM94.8667 97.1375V106.67H96.8667V97.1375H94.8667ZM99.9629 96.1375H95.8667V98.1375H99.9629V96.1375ZM98.9629 88.0216V97.1375H100.963V88.0216H98.9629ZM88.1151 96.2123L100.473 88.8817L99.4527 87.1616L87.0947 94.4922L88.1151 96.2123ZM64.5172 82.8196L87.0947 96.2123L88.1151 94.4922L65.5375 81.0995L64.5172 82.8196ZM63.2915 83.7988C64.0607 83.5376 64.7999 83.2167 65.5004 82.8405L64.5542 81.0785C63.9527 81.4015 63.315 81.6786 62.6483 81.905L63.2915 83.7988ZM58.0088 84.6127C59.8126 84.6463 61.6084 84.3704 63.2915 83.7988L62.6483 81.905C61.1884 82.4009 59.623 82.6423 58.046 82.613L58.0088 84.6127ZM53.7408 84.1791C55.1453 84.4604 56.5814 84.6058 58.0225 84.6129L58.0323 82.6129C56.7189 82.6065 55.4111 82.4739 54.1336 82.2181L53.7408 84.1791ZM34.8724 70.7738C36.0504 73.7086 38.8277 76.6541 42.2026 79.0406C45.5975 81.4412 49.7204 83.3644 53.7386 84.1787L54.1358 82.2185C50.431 81.4677 46.5619 79.6737 43.3573 77.4076C40.1328 75.1275 37.7031 72.4569 36.7284 70.0288L34.8724 70.7738ZM34.6686 69.4293C34.6324 69.886 34.7021 70.3416 34.8699 70.7677L36.7309 70.0349C36.6725 69.8867 36.6506 69.7355 36.6623 69.5876L34.6686 69.4293ZM35.0752 68.1377C34.8455 68.5338 34.7048 68.9729 34.6686 69.4293L36.6623 69.5876C36.6741 69.4395 36.7202 69.2879 36.8053 69.1411L35.0752 68.1377ZM35.9847 67.1252C35.6163 67.4002 35.3045 67.7424 35.0752 68.1377L36.8053 69.1411C36.8909 68.9936 37.0158 68.8513 37.1812 68.7278L35.9847 67.1252ZM37.2188 66.5173C36.773 66.6457 36.3529 66.8503 35.9847 67.1252L37.1812 68.7278C37.3468 68.6042 37.547 68.5041 37.7725 68.4391L37.2188 66.5173ZM38.5975 66.3644C38.1327 66.3375 37.6647 66.3888 37.2188 66.5173L37.7725 68.4391C37.9981 68.3741 38.2395 68.347 38.4815 68.3611L38.5975 66.3644ZM39.9461 66.6772C39.5203 66.4966 39.0623 66.3914 38.5975 66.3644L38.4815 68.3611C38.7236 68.3751 38.956 68.4297 39.1649 68.5184L39.9461 66.6772ZM41.0889 67.4333C40.7617 67.1126 40.3719 66.8579 39.9461 66.6772L39.1649 68.5184C39.3738 68.607 39.5505 68.7259 39.6891 68.8618L41.0889 67.4333ZM41.8436 68.5618C41.6761 68.1364 41.4165 67.7543 41.0889 67.4333L39.6891 68.8618C39.8274 68.9973 39.9241 69.1457 39.9827 69.2947L41.8436 68.5618ZM55.3741 77.7304C52.307 77.1073 49.2187 75.6211 46.7262 73.85C44.2022 72.0565 42.4385 70.0787 41.8441 68.5631L39.9822 69.2934C40.787 71.3454 42.9252 73.6026 45.5678 75.4803C48.2418 77.3804 51.5848 79.0014 54.9759 79.6903L55.3741 77.7304ZM59.3568 77.9897C58.0583 78.2183 56.7116 78.136 55.4685 77.7544L54.8815 79.6663C56.4301 80.1418 58.097 80.2423 59.7036 79.9593L59.3568 77.9897ZM62.4029 76.7626C61.5282 77.3662 60.4849 77.791 59.3568 77.9897L59.7036 79.9593C61.1006 79.7133 62.4156 79.1837 63.5388 78.4088L62.4029 76.7626ZM61.9709 70.3489V77.5857H63.9709V70.3489H61.9709ZM61.9848 72.3478C62.5812 71.9652 63.1329 71.5464 63.6382 71.0937L62.3035 69.6041C61.8808 69.9829 61.4147 70.3374 60.9049 70.6644L61.9848 72.3478ZM44.3782 69.0577C46.7349 70.5156 49.6102 72.3005 52.6078 73.2457C55.6367 74.2007 58.9214 74.3387 61.9898 72.3446L60.8999 70.6676C58.5028 72.2255 55.8952 72.1851 53.2092 71.3382C50.4918 70.4814 47.8296 68.841 45.4304 67.3569L44.3782 69.0577ZM44.3158 69.0191L44.3782 69.0577L45.4304 67.3569L45.368 67.3182L44.3158 69.0191ZM34.9256 65.5376C35.6673 65.1121 36.7079 65.1177 38.3439 65.7545C39.9665 66.3861 41.9214 67.538 44.3158 69.0191L45.368 67.3182C42.9996 65.8532 40.8911 64.5998 39.0693 63.8907C37.2609 63.1868 35.4761 62.9162 33.9305 63.8027L34.9256 65.5376ZM32.7761 67.9049C33.2241 66.9724 33.9729 66.1409 34.9624 65.5154L33.8937 63.8249C32.6147 64.6334 31.5975 65.7398 30.9734 67.0389L32.7761 67.9049ZM32.3711 70.8205C32.1927 69.841 32.3294 68.8349 32.7761 67.9049L30.9734 67.0389C30.3481 68.3405 30.1476 69.7746 30.4035 71.179L32.3711 70.8205ZM47.877 85.0217C36.9539 81.0175 32.8578 74.9657 32.3805 70.8836L30.3941 71.1159C30.9932 76.2405 35.8848 82.7558 47.1886 86.8995L47.877 85.0217ZM49.7169 86.4913C49.2986 85.8063 48.6372 85.2987 47.8751 85.021L47.1905 86.9002C47.5732 87.0396 47.8523 87.2754 48.0101 87.5338L49.7169 86.4913ZM50.0843 88.7843C50.2763 87.9963 50.1388 87.1821 49.7169 86.4913L48.0101 87.5338C48.1643 87.7865 48.203 88.0571 48.1412 88.311L50.0843 88.7843ZM48.7353 90.6931C49.4004 90.2344 49.8936 89.5676 50.0843 88.7843L48.1412 88.311C48.0782 88.5696 47.9033 88.8374 47.5998 89.0468L48.7353 90.6931ZM46.4495 91.3798C47.2643 91.3855 48.0721 91.1506 48.7353 90.6931L47.5998 89.0468C47.2944 89.2574 46.8928 89.3829 46.4634 89.3799L46.4495 91.3798ZM45.1702 91.1345C45.5691 91.2809 45.9918 91.363 46.4186 91.3791L46.4943 89.3806C46.2724 89.3722 46.0569 89.3295 45.8591 89.2569L45.1702 91.1345ZM25.1998 71.546C25.9003 77.9375 31.6518 86.1021 45.1657 91.1329L45.8635 89.2585C32.7911 84.3921 27.779 76.7212 27.1879 71.3281L25.1998 71.546ZM26.2771 65.0518C25.2368 67.0985 24.8625 69.3603 25.2055 71.5892L27.1822 71.285C26.9046 69.4811 27.2042 67.6417 28.06 65.9581L26.2771 65.0518ZM31.0548 59.9957C28.9747 61.2651 27.3162 63.0077 26.2771 65.0518L28.06 65.9581C28.917 64.2721 30.3054 62.796 32.0966 61.703L31.0548 59.9957ZM48.2812 63.3825C45.9078 61.9484 43.1185 60.2571 40.2162 59.3413C37.2837 58.4159 34.1228 58.2457 31.0803 59.9807L32.071 61.7181C34.4715 60.3492 37.0105 60.4269 39.6143 61.2486C42.2484 62.0798 44.8318 63.6349 47.2469 65.0942L48.2812 63.3825ZM48.6149 63.584L48.2812 63.3825L47.2469 65.0942L47.5809 65.296L48.6149 63.584ZM57.7834 66.9817C57.1232 67.4053 56.1789 67.4338 54.5817 66.8136C52.9968 66.1981 51.0577 65.0582 48.6149 63.584L47.5809 65.296C49.9817 66.7449 52.079 67.9872 53.8577 68.6779C55.6242 69.3639 57.3708 69.6226 58.8633 68.6651L57.7834 66.9817ZM59.0614 65.8359C58.7321 66.2423 58.3106 66.6325 57.7713 66.9897L58.8755 68.6572C59.5769 68.1927 60.152 67.6667 60.6152 67.0951L59.0614 65.8359ZM52.6714 63.377L59.3281 67.3256L60.3485 65.6055L53.6918 61.6568L52.6714 63.377ZM52.6401 63.3565C52.6308 63.3511 52.6177 63.343 52.602 63.3318L53.7612 61.702C53.7219 61.674 53.6828 61.6493 53.645 61.6273L52.6401 63.3565ZM51.2073 61.9719C51.3287 62.1369 51.5298 62.3849 51.7647 62.631C51.9882 62.8651 52.2995 63.1586 52.6401 63.3565L53.645 61.6273C53.5512 61.5728 53.3953 61.4427 53.2114 61.25C53.0388 61.0692 52.892 60.8869 52.8179 60.7862L51.2073 61.9719ZM50.6621 61.3671L51.2662 62.0446L52.7589 60.7135L52.1548 60.036L50.6621 61.3671ZM51.4506 61.7007L51.4565 61.7004L51.3604 59.7027L51.3545 59.703L51.4506 61.7007ZM50.9124 59.8301L50.907 59.8333L51.8982 61.5704L51.9036 61.5672L50.9124 59.8301ZM36.393 55.8978C41.619 55.0397 46.5258 56.8643 50.6718 61.3754L52.1443 60.022C47.6087 55.0869 42.0514 52.942 36.0689 53.9243L36.393 55.8978ZM28.1887 59.4752C30.5092 57.7004 33.3419 56.4622 36.4128 55.8944L36.0491 53.9277C32.6874 54.5493 29.559 55.9092 26.9736 57.8866L28.1887 59.4752ZM23.1688 65.9798C24.146 63.4947 25.8689 61.2496 28.1887 59.4752L26.9736 57.8866C24.3876 59.8646 22.4284 62.3975 21.3076 65.2479L23.1688 65.9798ZM23.2382 65.6368V65.6138H21.2382V65.6368H23.2382ZM33.1071 90.5648C24.1959 81.2082 21.068 72.9909 23.1957 65.9252L21.2807 65.3485C18.8338 73.4739 22.5947 82.427 31.6588 91.9441L33.1071 90.5648ZM33.9624 93.048C34.07 92.1283 33.743 91.2366 33.1092 90.567L31.6567 91.9419C31.9151 92.2148 32.0095 92.5288 31.976 92.8158L33.9624 93.048ZM32.5836 95.2933C33.3354 94.7617 33.8554 93.9638 33.9624 93.048L31.976 92.8158C31.9419 93.1068 31.7698 93.4192 31.4288 93.6603L32.5836 95.2933ZM30.2983 96.0061C31.1245 96.0165 31.9452 95.7676 32.6023 95.2797L31.4101 93.6739C31.1277 93.8836 30.7413 94.0115 30.3235 94.0063L30.2983 96.0061ZM28.7511 95.7241C29.2506 95.9217 29.7905 96.0167 30.3308 96.006L30.2911 94.0064C30.0093 94.012 29.7336 93.962 29.4868 93.8643L28.7511 95.7241ZM27.4324 94.8425C27.7981 95.2284 28.2515 95.5265 28.7511 95.7241L29.4868 93.8643C29.24 93.7667 29.0361 93.6272 28.884 93.4667L27.4324 94.8425ZM15.8977 64.2476C13.0549 73.828 17.1937 84.1568 27.4362 94.8464L28.8803 93.4627C18.8332 82.977 15.276 73.3733 17.815 64.8165L15.8977 64.2476ZM23.181 54.5372C19.82 57.1296 17.3064 60.4548 15.9191 64.1833L17.7936 64.8808C19.0401 61.5305 21.3136 58.5033 24.4025 56.1209L23.181 54.5372ZM35.0334 49.3922C30.633 50.1743 26.5411 51.9454 23.181 54.5372L24.4025 56.1209C27.4921 53.7378 31.2806 52.0906 35.3834 51.3613L35.0334 49.3922ZM56.627 57.4729C48.725 48.7464 39.7494 48.6459 35.0521 49.389L35.3647 51.3645C39.6418 50.6878 47.841 50.7498 55.1445 58.8154L56.627 57.4729ZM58.8769 55.2864L55.3902 57.2756L56.3813 59.0127L59.8679 57.0236L58.8769 55.2864ZM38.8142 45.3464C47.8595 45.3464 55.2516 50.8971 58.5018 56.6471L60.2429 55.6629C56.6824 49.364 48.6668 43.3464 38.8142 43.3464V45.3464ZM12.4745 74.2681C12.4745 70.8769 12.9625 63.599 16.5035 57.2022C18.2657 54.0187 20.7764 51.0668 24.3541 48.9067C27.9298 46.7477 32.6266 45.3464 38.8142 45.3464V43.3464C32.3142 43.3464 27.2497 44.8221 23.3203 47.1946C19.3928 49.5659 16.6545 52.7997 14.7537 56.2336C10.9687 63.0713 10.4745 70.7543 10.4745 74.2681H12.4745ZM11.3364 76.6556C12.0411 76.0528 12.4745 75.1987 12.4745 74.2681H10.4745C10.4745 74.5584 10.341 74.8752 10.0364 75.1357L11.3364 76.6556ZM8.78365 77.5698C9.71643 77.5698 10.6365 77.2542 11.3364 76.6556L10.0364 75.1357C9.727 75.4004 9.27822 75.5698 8.78365 75.5698V77.5698ZM6.23088 76.6556C6.93076 77.2542 7.85086 77.5698 8.78365 77.5698V75.5698C8.28908 75.5698 7.84029 75.4004 7.53089 75.1357L6.23088 76.6556ZM5.09273 74.2681C5.09273 75.1987 5.52618 76.0528 6.23088 76.6556L7.53089 75.1357C7.22629 74.8752 7.09273 74.5584 7.09273 74.2681H5.09273ZM38.8142 38.743C26.4827 38.743 18.001 43.3202 12.6271 50.1283C7.28247 56.8993 5.09273 65.7715 5.09273 74.2681H7.09273C7.09273 66.0776 9.20846 57.6873 14.1969 51.3675C19.1561 45.0848 27.0351 40.743 38.8142 40.743V38.743ZM55.6974 43.8424C50.8004 40.7158 44.9245 38.9431 38.847 38.7436L38.7814 40.7425C44.5193 40.9308 50.0427 42.6049 54.6211 45.5281L55.6974 43.8424ZM64.7151 53.0989C62.5995 49.4507 59.5124 46.2782 55.6974 43.8424L54.6211 45.5281C58.1859 47.8041 61.0407 50.7494 62.985 54.1022L64.7151 53.0989ZM67.8583 50.1626L63.3545 52.7319L64.3456 54.4691L68.8493 51.8998L67.8583 50.1626ZM38.7873 36.1397C51.6001 36.1397 60.9905 41.1864 67.5069 51.563L69.2006 50.4994C62.2988 39.5091 52.2507 34.1397 38.7873 34.1397V36.1397ZM9.54416 52.7604C12.7522 47.1486 16.7491 43.0079 21.5722 40.2641C26.3969 37.5194 32.1061 36.1397 38.7873 36.1397V34.1397C31.8256 34.1397 25.7621 35.5795 20.5833 38.5257C15.4029 41.4728 11.1656 45.8942 7.80786 51.7678L9.54416 52.7604ZM8.62936 53.7831C9.00006 53.5064 9.31334 53.1615 9.54275 52.7629L7.80927 51.7654C7.72407 51.9134 7.59897 52.0565 7.43293 52.1804L8.62936 53.7831ZM7.38683 54.3929C7.8358 54.2649 8.25889 54.0597 8.62936 53.7831L7.43293 52.1804C7.26666 52.3045 7.06535 52.4049 6.83846 52.4695L7.38683 54.3929ZM5.99922 54.541C6.46671 54.5707 6.93786 54.5209 7.38683 54.3929L6.83846 52.4695C6.61159 52.5342 6.36888 52.5605 6.12591 52.545L5.99922 54.541ZM4.64408 54.2167C5.07082 54.402 5.53174 54.5113 5.99922 54.541L6.12591 52.545C5.88293 52.5296 5.65015 52.4732 5.44168 52.3827L4.64408 54.2167ZM2.77376 52.3251C3.10332 53.1836 3.79596 53.8475 4.64408 54.2167L5.44168 52.3827C5.02226 52.2001 4.75507 51.9057 4.64091 51.6083L2.77376 52.3251ZM2.99693 49.7093C2.52697 50.5097 2.44055 51.4571 2.77376 52.3251L4.64091 51.6083C4.5304 51.3204 4.55326 51.0087 4.72165 50.722L2.99693 49.7093ZM38.8411 29.5363C22.815 29.5363 10.6605 36.3397 2.9917 49.7183L4.72684 50.7129C12.0195 37.9905 23.4912 31.5363 38.8411 31.5363V29.5363ZM67.1433 79.4965L87.0947 91.3315L88.1151 89.6114L68.1636 77.7764L67.1433 79.4965ZM66.6164 78.6935C66.6457 78.7561 66.6682 78.8193 66.6842 78.8824L68.6227 78.3905C68.5751 78.2028 68.5097 78.0208 68.4282 77.8464L66.6164 78.6935ZM66.5223 71.0236V78.27H68.5223V71.0236H66.5223ZM88.0985 82.0665L68.0325 70.1636L67.0121 71.8837L87.0781 83.7866L88.0985 82.0665ZM99.4527 74.726L87.0781 82.0665L88.0985 83.7866L100.473 76.4461L99.4527 74.726ZM100.963 83.141V75.5861H98.9629V83.141H100.963ZM88.1151 91.3315L100.473 84.001L99.4527 82.2809L87.0947 89.6114L88.1151 91.3315ZM65.736 66.2458L87.0781 78.9057L88.0985 77.1856L66.7564 64.5257L65.736 66.2458ZM88.0985 78.9057L98.6401 72.6525L97.6197 70.9323L87.0781 77.1856L88.0985 78.9057ZM98.6415 70.9332L86.8377 63.9048L85.8145 65.6232L97.6183 72.6516L98.6415 70.9332ZM87.1277 65.362L89.6518 61.9784L88.0487 60.7825L85.5246 64.1661L87.1277 65.362ZM88.3387 62.2397L101.729 70.213L102.753 68.4945L89.3619 60.5212L88.3387 62.2397ZM102.751 70.2138L116.597 62.0009L115.576 60.2807L101.731 68.4937L102.751 70.2138ZM116.582 60.2722L88.0835 44.014L87.0925 45.7512L115.591 62.0094L116.582 60.2722ZM87.0925 44.014L65.1193 56.5496L66.1104 58.2867L88.0835 45.7512L87.0925 44.014ZM64.6679 57.7396C64.6687 57.7418 64.6693 57.7437 64.6694 57.7439C64.6696 57.7445 64.6692 57.7434 64.6687 57.7419L66.5625 57.099C66.5618 57.0968 66.5612 57.0949 66.5611 57.0948C66.5609 57.0941 66.5613 57.0953 66.5618 57.0967L64.6679 57.7396ZM60.4488 59.2143L58.5943 60.272L59.5852 62.0093L61.4397 60.9515L60.4488 59.2143ZM58.5796 62.0007L60.579 63.1867L61.5993 61.4666L59.6 60.2806L58.5796 62.0007ZM60.0967 62.449L60.0972 62.4529L62.0821 62.2081L62.0816 62.2043L60.0967 62.449ZM67.1858 65.7282L67.1865 65.726L65.3059 65.0455L65.3051 65.0477L67.1858 65.7282ZM105.025 81.301L108.05 79.5063L107.03 77.7861L104.004 79.5809L105.025 81.301ZM103.514 72.886V80.441H105.514V72.886H103.514ZM107.03 70.2312L104.004 72.026L105.025 73.7461L108.05 71.9514L107.03 70.2312ZM108.54 78.6462V71.0913H106.54V78.6462H108.54ZM65.1205 56.5517L60.4488 59.2143L61.4397 60.9515L66.1108 58.2893L65.1205 56.5517ZM60.5796 63.1906L65.7354 66.2481L66.7555 64.5278L61.5997 61.4704L60.5796 63.1906Z" fill="black"/>
</g>
</g>
</g>
<defs>
<filter id="filter0_d_3205_16" x="-0.427002" y="21.3296" width="128.854" height="93.3405" filterUnits="userSpaceOnUse" color-interpolation-filters="sRGB">
<feFlood flood-opacity="0" result="BackgroundImageFix"/>
<feColorMatrix in="SourceAlpha" type="matrix" values="0 0 0 0 0 0 0 0 0 0 0 0 0 0 0 0 0 0 127 0" result="hardAlpha"/>
<feOffset dy="4"/>
<feGaussianBlur stdDeviation="2"/>
<feComposite in2="hardAlpha" operator="out"/>
<feColorMatrix type="matrix" values="0 0 0 0 0 0 0 0 0 0 0 0 0 0 0 0 0 0 0.25 0"/>
<feBlend mode="normal" in2="BackgroundImageFix" result="effect1_dropShadow_3205_16"/>
<feBlend mode="normal" in="SourceGraphic" in2="effect1_dropShadow_3205_16" result="shape"/>
</filter>
<clipPath id="clip0_3205_16">
<rect width="128" height="128" fill="white"/>
</clipPath>
</defs>
</svg>
