<?xml version="1.0" encoding="UTF-8"?>
<!--Generator: Apple Native CoreSVG 326-->
<!DOCTYPE svg
PUBLIC "-//W3C//DTD SVG 1.1//EN"
       "http://www.w3.org/Graphics/SVG/1.1/DTD/svg11.dtd">
<svg version="1.1" xmlns="http://www.w3.org/2000/svg" xmlns:xlink="http://www.w3.org/1999/xlink" viewBox="0 0 13.2969 12.8984">
 <g>
  <rect height="12.8984" opacity="0" width="13.2969" x="0" y="0"/>
  <path d="M0 6.44531C0 6.82812 0.320312 7.14062 0.695312 7.14062L5.75 7.14062L5.75 12.1953C5.75 12.5703 6.0625 12.8906 6.44531 12.8906C6.82812 12.8906 7.14844 12.5703 7.14844 12.1953L7.14844 7.14062L12.1953 7.14062C12.5703 7.14062 12.8906 6.82812 12.8906 6.44531C12.8906 6.0625 12.5703 5.74219 12.1953 5.74219L7.14844 5.74219L7.14844 0.695312C7.14844 0.320312 6.82812 0 6.44531 0C6.0625 0 5.75 0.320312 5.75 0.695312L5.75 5.74219L0.695312 5.74219C0.320312 5.74219 0 6.0625 0 6.44531Z" fill="black"/>
 </g>
</svg>
